<svg width="70" height="70" viewBox="0 0 70 70" fill="none" xmlns="http://www.w3.org/2000/svg">
<path d="M66.3875 31.7884V14.8711C66.3875 12.553 64.464 10.667 62.0998 10.667H7.90018C5.536 10.667 3.61253 12.553 3.61253 14.8711V31.7885C1.57006 32.0932 0 33.8265 0 35.913V46.3841C0 47.1153 0.604549 47.7081 1.35024 47.7081H2.7968V54.2395C2.7968 54.9706 3.40135 55.5634 4.14705 55.5634H6.5845V58.1126C6.5845 58.8438 7.18905 59.4365 7.93475 59.4365C8.68044 59.4365 9.28499 58.8438 9.28499 58.1126V55.5634H60.7152V58.1126C60.7152 58.8438 61.3196 59.4365 62.0654 59.4365C62.8113 59.4365 63.4157 58.8438 63.4157 58.1126V55.5634H65.8531C66.599 55.5634 67.2034 54.9706 67.2034 54.2395V47.7081H68.6498C69.3956 47.7081 70 47.1153 70 46.3841V35.913C70 33.8265 68.4299 32.093 66.3875 31.7884ZM6.31283 14.8711C6.31283 14.013 7.02486 13.3149 7.9 13.3149H62.0996C62.9748 13.3149 63.6868 14.013 63.6868 14.8711V31.7409H58.9457C59.889 30.7451 60.8486 29.6979 61.8424 28.5775C62.2844 28.0792 62.2842 27.3378 61.8422 26.8397C57.9359 22.4375 54.6652 19.2306 50.1768 15.4016C49.6688 14.968 48.9125 14.968 48.4042 15.4016C43.9157 19.2307 40.6452 22.4377 36.739 26.8397C36.297 27.3378 36.2969 28.0792 36.7388 28.5775C37.7328 29.6981 38.6922 30.7453 39.6356 31.7409H30.3634C31.3067 30.7451 32.2665 29.6979 33.2603 28.5775C33.7022 28.0792 33.7022 27.3378 33.2601 26.8397C29.3543 22.4382 26.0836 19.2313 21.5947 15.4016C21.0866 14.968 20.3303 14.968 19.8221 15.4016C15.3332 19.2313 12.0625 22.4382 8.15673 26.8397C7.71457 27.3378 7.71457 28.0792 8.15655 28.5775C9.1505 29.6979 10.1101 30.7451 11.0534 31.7409H6.31283V14.8711ZM43.3613 31.7409C42.1189 30.4904 40.8639 29.1617 39.5536 27.7087C42.7814 24.1275 45.6393 21.3254 49.2907 18.1612C52.9421 21.3252 55.7999 24.1275 59.0279 27.7087C57.7178 29.1617 56.4626 30.4904 55.2202 31.7409H43.3613ZM14.7794 31.7409C13.537 30.4902 12.2818 29.1617 10.9715 27.7087C14.1988 24.1282 17.0572 21.3256 20.7088 18.1612C24.3604 21.3256 27.2187 24.1282 30.446 27.7087C29.1359 29.1617 27.8807 30.4902 26.6381 31.7409H14.7794ZM64.5029 52.9155H5.49729V47.7081H64.5029V52.9155ZM67.2995 45.0602H2.70049V35.913C2.70049 35.0726 3.39793 34.3887 4.25524 34.3887H65.7448C66.6021 34.3887 67.2995 35.0726 67.2995 35.913V45.0602Z" fill="#06357A"/>
</svg>
