<svg width="18" height="18" viewBox="0 0 18 18" fill="none" xmlns="http://www.w3.org/2000/svg">
<path d="M7.45312 8.08594C7.84145 8.08594 8.15625 7.77114 8.15625 7.38281C8.15625 6.99449 7.84145 6.67969 7.45312 6.67969C7.0648 6.67969 6.75 6.99449 6.75 7.38281C6.75 7.77114 7.0648 8.08594 7.45312 8.08594Z" fill="white"/>
<path d="M17.5388 14.5331C17.4615 14.5015 16.9849 14.2843 16.9849 13.7355V12.6801C16.9849 11.1958 15.9441 9.93628 14.5547 9.60307V9.14062C14.5547 8.75229 14.2399 8.4375 13.8516 8.4375C13.4632 8.4375 13.1484 8.75229 13.1484 9.14062V9.59491C11.7414 9.91515 10.6831 11.1833 10.6831 12.6801V13.7355C10.6831 14.2843 10.2065 14.5016 10.1292 14.5331C9.84248 14.6288 9.66797 14.8907 9.66797 15.1935C9.66797 15.6422 9.82754 16.132 10.0949 16.5036C10.4628 17.0152 11.0116 17.2969 11.6402 17.2969H13.1484C13.1484 17.6845 13.4639 18 13.8516 18C14.2392 18 14.5547 17.6845 14.5547 17.2969H16.0278C16.6564 17.2969 17.2052 17.0152 17.5731 16.5036C17.8404 16.132 18 15.6422 18 15.1935C18 14.8907 17.8255 14.6287 17.5388 14.5331ZM16.0278 15.8906H11.6402C11.3787 15.8906 11.2375 15.7243 11.1615 15.5541C11.6271 15.2118 12.0894 14.6188 12.0894 13.7355V12.6801C12.0894 11.7241 12.866 10.9359 13.8207 10.9231C13.8251 10.923 13.8296 10.9229 13.834 10.9228C13.8384 10.9229 13.8428 10.923 13.8473 10.9231C14.8019 10.9359 15.5786 11.7242 15.5786 12.6801V13.7355C15.5786 14.6188 16.041 15.2118 16.5064 15.5541C16.4304 15.7243 16.2893 15.8906 16.0278 15.8906Z" fill="white"/>
<path d="M7.45312 11.1445C7.84145 11.1445 8.15625 10.8297 8.15625 10.4414C8.15625 10.0531 7.84145 9.73828 7.45312 9.73828C7.0648 9.73828 6.75 10.0531 6.75 10.4414C6.75 10.8297 7.0648 11.1445 7.45312 11.1445Z" fill="white"/>
<path d="M7.45312 14.2031C7.84145 14.2031 8.15625 13.8883 8.15625 13.5C8.15625 13.1117 7.84145 12.7969 7.45312 12.7969C7.0648 12.7969 6.75 13.1117 6.75 13.5C6.75 13.8883 7.0648 14.2031 7.45312 14.2031Z" fill="white"/>
<path d="M4.39453 8.08594C4.78286 8.08594 5.09766 7.77114 5.09766 7.38281C5.09766 6.99449 4.78286 6.67969 4.39453 6.67969C4.00621 6.67969 3.69141 6.99449 3.69141 7.38281C3.69141 7.77114 4.00621 8.08594 4.39453 8.08594Z" fill="white"/>
<path d="M4.39453 14.2031C4.78286 14.2031 5.09766 13.8883 5.09766 13.5C5.09766 13.1117 4.78286 12.7969 4.39453 12.7969C4.00621 12.7969 3.69141 13.1117 3.69141 13.5C3.69141 13.8883 4.00621 14.2031 4.39453 14.2031Z" fill="white"/>
<path d="M10.5117 8.08594C10.9 8.08594 11.2148 7.77114 11.2148 7.38281C11.2148 6.99449 10.9 6.67969 10.5117 6.67969C10.1234 6.67969 9.80859 6.99449 9.80859 7.38281C9.80859 7.77114 10.1234 8.08594 10.5117 8.08594Z" fill="white"/>
<path d="M4.39453 11.1445C4.78286 11.1445 5.09766 10.8297 5.09766 10.4414C5.09766 10.0531 4.78286 9.73828 4.39453 9.73828C4.00621 9.73828 3.69141 10.0531 3.69141 10.4414C3.69141 10.8297 4.00621 11.1445 4.39453 11.1445Z" fill="white"/>
<path d="M15.1875 1.40625H14.2734V0.703125C14.2734 0.314789 13.9586 0 13.5703 0C13.182 0 12.8672 0.314789 12.8672 0.703125V1.40625H9.66797V0.703125C9.66797 0.314789 9.35318 0 8.96484 0C8.57651 0 8.26172 0.314789 8.26172 0.703125V1.40625H5.09766V0.703125C5.09766 0.314789 4.78287 0 4.39453 0C4.0062 0 3.69141 0.314789 3.69141 0.703125V1.40625H2.8125C1.26169 1.40625 0 2.66794 0 4.21875V15.1875C0 16.7383 1.26169 18 2.8125 18H7.41797C7.8063 18 8.12109 17.6852 8.12109 17.2969C8.12109 16.9085 7.8063 16.5938 7.41797 16.5938H2.8125C2.03709 16.5938 1.40625 15.9629 1.40625 15.1875V4.21875C1.40625 3.44334 2.03709 2.8125 2.8125 2.8125H3.69141V3.51562C3.69141 3.90396 4.0062 4.21875 4.39453 4.21875C4.78287 4.21875 5.09766 3.90396 5.09766 3.51562V2.8125H8.26172V3.51562C8.26172 3.90396 8.57651 4.21875 8.96484 4.21875C9.35318 4.21875 9.66797 3.90396 9.66797 3.51562V2.8125H12.8672V3.51562C12.8672 3.90396 13.182 4.21875 13.5703 4.21875C13.9586 4.21875 14.2734 3.90396 14.2734 3.51562V2.8125H15.1875C15.9629 2.8125 16.5938 3.44334 16.5938 4.21875V8.4375C16.5938 8.82584 16.9085 9.14062 17.2969 9.14062C17.6852 9.14062 18 8.82584 18 8.4375V4.21875C18 2.66794 16.7383 1.40625 15.1875 1.40625Z" fill="white"/>
</svg>
