<svg width="41" height="40" viewBox="0 0 41 40" fill="none" xmlns="http://www.w3.org/2000/svg">
<g clip-path="url(#clip0)">
<path d="M8.52539 14.8438C8.52539 21.3056 13.8868 26.5625 20.477 26.5625C27.0672 26.5625 32.4286 21.3056 32.4286 14.8438C32.4286 8.38196 27.0672 3.12499 20.477 3.12499C13.8868 3.12499 8.52539 8.38196 8.52539 14.8438ZM20.477 4.68749C26.1886 4.68749 30.8351 9.24347 30.8351 14.8438C30.8351 20.4441 26.1886 25 20.477 25C14.7654 25 10.1189 20.4441 10.1189 14.8438C10.1189 9.24347 14.7654 4.68749 20.477 4.68749Z" fill="#06357A"/>
<path d="M13.098 13.4509L16.1864 16.4346L15.4758 20.6281C15.4264 20.9201 15.5493 21.2143 15.7936 21.3883C16.0376 21.5622 16.361 21.5857 16.629 21.4496L20.4769 19.4904L24.3244 21.4496C24.5902 21.5848 24.9136 21.5637 25.1598 21.3883C25.4041 21.2143 25.5271 20.9201 25.4776 20.6281L24.767 16.4346L27.8555 13.4509C28.0705 13.2434 28.1474 12.9346 28.054 12.6529C27.9607 12.3715 27.7132 12.1661 27.4147 12.1219L23.1286 11.4893L21.1893 7.68645C21.0545 7.42186 20.7785 7.25462 20.4769 7.25462C20.175 7.25462 19.8992 7.42186 19.7641 7.68645L17.8248 11.4893L13.5387 12.1219C13.2402 12.1658 12.9928 12.3715 12.8994 12.6529C12.806 12.9346 12.8832 13.2434 13.098 13.4509ZM18.4712 12.9739C18.7277 12.9361 18.9493 12.7783 19.0654 12.551L20.4769 9.78271L21.8883 12.551C22.0044 12.7783 22.226 12.9361 22.4825 12.9739L25.6021 13.4345L23.354 15.6058C23.1694 15.7843 23.0848 16.0397 23.1271 16.2906L23.6444 19.3427L20.8438 17.9169C20.729 17.8583 20.6029 17.829 20.4769 17.829C20.3508 17.829 20.2248 17.8583 20.1096 17.9169L17.3091 19.3427L17.8263 16.2906C17.869 16.0397 17.7843 15.7843 17.5994 15.6058L15.3517 13.4345L18.4712 12.9739Z" fill="#06357A"/>
<path d="M21.2732 0.781244C21.2732 1.21276 20.9166 1.56249 20.4765 1.56249C20.0364 1.56249 19.6797 1.21276 19.6797 0.781244C19.6797 0.349724 20.0364 -7.62939e-06 20.4765 -7.62939e-06C20.9166 -7.62939e-06 21.2732 0.349724 21.2732 0.781244Z" fill="#06357A"/>
<path d="M16.7215 0.461282C10.0189 2.13884 5.33789 8.05346 5.33789 14.8445C5.33789 19.0624 7.14651 23.0367 10.3215 25.8513L5.52121 34.1463C5.36684 34.4134 5.38613 34.7442 5.57039 34.992C5.75464 35.2401 6.06962 35.3594 6.37619 35.2969L11.8276 34.1869L13.7436 39.4808C13.8475 39.7689 14.1136 39.9706 14.4242 39.9978C14.7349 40.0249 15.0327 39.8714 15.1868 39.6056L20.4766 30.487L25.7661 39.6056C25.9087 39.8513 26.1739 40.0005 26.4583 40.0005C26.4817 40.0005 26.5053 39.9996 26.5287 39.9978C26.8393 39.9706 27.1054 39.7686 27.2097 39.4808L29.1254 34.1869L34.5767 35.2969C34.883 35.3591 35.1983 35.2398 35.3825 34.992C35.5671 34.7442 35.5861 34.4134 35.4317 34.1463L30.6314 25.8513C33.8064 23.0367 35.615 19.0624 35.615 14.8445C35.615 8.05346 30.934 2.13884 24.2317 0.461282C23.805 0.35447 23.3715 0.606851 23.2625 1.02494C23.1536 1.44303 23.411 1.86845 23.8374 1.97526C29.8337 3.47612 34.0218 8.76818 34.0218 14.8445C34.0218 22.2399 27.8963 28.1258 20.4766 28.1258C13.0517 28.1258 6.93144 22.235 6.93144 14.8445C6.93144 8.76818 11.1192 3.47612 17.1155 1.97526C17.5419 1.86845 17.7993 1.44303 17.6907 1.02494C17.5818 0.606851 17.1482 0.35447 16.7215 0.461282ZM14.663 37.3489L13.0971 33.0224C12.9639 32.6543 12.5742 32.4392 12.1842 32.5185L7.77615 33.416L11.5751 26.8511C13.7902 28.4301 16.4131 29.392 19.1405 29.63L14.663 37.3489ZM28.7687 32.5185C28.379 32.4392 27.989 32.6543 27.8558 33.0224L26.2903 37.3489L21.8125 29.63C24.5402 29.392 27.1627 28.4301 29.3781 26.8511L33.1771 33.416L28.7687 32.5185Z" fill="#06357A"/>
</g>
<defs>
<clipPath id="clip0">
<rect width="40.7948" height="40" fill="white"/>
</clipPath>
</defs>
</svg>
