<svg width="40" height="40" viewBox="0 0 40 40" fill="none" xmlns="http://www.w3.org/2000/svg">
<path d="M18.4375 30.625C18.869 30.625 19.2188 30.2753 19.2188 29.8438V16.4062C19.2188 15.9747 18.869 15.625 18.4375 15.625H7.5C7.06848 15.625 6.71875 15.9747 6.71875 16.4062V29.8438C6.71875 30.2753 7.06848 30.625 7.5 30.625H18.4375ZM8.28125 17.1875H17.6562V29.0625H8.28125V17.1875Z" fill="#06357A"/>
<path d="M32.5 30.625C32.9315 30.625 33.2812 30.2753 33.2812 29.8438V16.4062C33.2812 15.9747 32.9315 15.625 32.5 15.625H21.5625C21.131 15.625 20.7812 15.9747 20.7812 16.4062V29.8438C20.7812 30.2753 21.131 30.625 21.5625 30.625H32.5ZM22.3438 17.1875H31.7188V29.0625H22.3438V17.1875Z" fill="#06357A"/>
<path d="M24.6875 20.7812C24.256 20.7812 23.9062 21.131 23.9062 21.5625V24.6875C23.9062 25.119 24.256 25.4688 24.6875 25.4688C25.119 25.4688 25.4688 25.119 25.4688 24.6875V21.5625C25.4688 21.131 25.119 20.7812 24.6875 20.7812Z" fill="#06357A"/>
<path d="M15.3125 20.7812C14.881 20.7812 14.5312 21.131 14.5312 21.5625V24.6875C14.5312 25.119 14.881 25.4688 15.3125 25.4688C15.744 25.4688 16.0938 25.119 16.0938 24.6875V21.5625C16.0938 21.131 15.744 20.7812 15.3125 20.7812Z" fill="#06357A"/>
<path d="M5.15625 23.125C5.15625 23.5565 4.80652 23.9062 4.375 23.9062C3.94348 23.9062 3.59375 23.5565 3.59375 23.125C3.59375 22.6935 3.94348 22.3438 4.375 22.3438C4.80652 22.3438 5.15625 22.6935 5.15625 23.125Z" fill="#06357A"/>
<path d="M3.59375 39.2188C3.59375 39.6503 3.94348 40 4.375 40H7.5C7.79602 40 8.06641 39.8328 8.19885 39.5682L9.54529 36.875H30.4547L31.8011 39.5682C31.9336 39.8328 32.204 40 32.5 40H35.625C36.0565 40 36.4062 39.6503 36.4062 39.2188V14.8438C36.4062 13.5513 35.3549 12.5 34.0625 12.5H32.7576C34.9689 10.9375 36.4062 8.3844 36.4062 5.46875C36.4062 5.03723 36.0565 4.6875 35.625 4.6875H28.5938V3.125H29.375C29.8065 3.125 30.1562 2.77527 30.1562 2.34375C30.1562 1.91223 29.8065 1.5625 29.375 1.5625H26.25C25.8185 1.5625 25.4688 1.91223 25.4688 2.34375C25.4688 2.77527 25.8185 3.125 26.25 3.125H27.0312V4.6875H20.7812V2.34375C20.7812 1.91284 21.1316 1.5625 21.5625 1.5625C21.994 1.5625 22.3438 1.91254 22.3438 2.34375C22.3438 2.77527 22.6935 3.125 23.125 3.125C23.5565 3.125 23.9062 2.77527 23.9062 2.34375C23.9062 1.04889 22.8574 0 21.5625 0C20.2701 0 19.2188 1.05133 19.2188 2.34375V4.6875H16.0938V3.125H16.875C17.3065 3.125 17.6562 2.77527 17.6562 2.34375C17.6562 1.91223 17.3065 1.5625 16.875 1.5625H13.75C13.3185 1.5625 12.9688 1.91223 12.9688 2.34375C12.9688 2.77527 13.3185 3.125 13.75 3.125H14.5312V4.6875H4.375C3.94348 4.6875 3.59375 5.03723 3.59375 5.46875C3.59375 8.37219 5.0412 10.9433 7.2522 12.5H5.9375C4.64508 12.5 3.59375 13.5513 3.59375 14.8438V20C3.59375 20.4315 3.94348 20.7812 4.375 20.7812C4.80652 20.7812 5.15625 20.4315 5.15625 20V14.8438C5.15625 14.4128 5.50659 14.0625 5.9375 14.0625H34.0625C34.4934 14.0625 34.8438 14.4128 34.8438 14.8438V32.1875H5.15625V26.25C5.15625 25.8185 4.80652 25.4688 4.375 25.4688C3.94348 25.4688 3.59375 25.8185 3.59375 26.25V39.2188ZM12.1875 12.5C8.57452 12.5 5.58929 9.75983 5.19928 6.24908H34.801C34.4214 9.70856 31.4886 12.5 27.8125 12.5H12.1875ZM5.15625 33.75H34.8438V38.4375H32.9828L31.6364 35.7443C31.5039 35.4797 31.2335 35.3125 30.9375 35.3125H9.0625C8.76648 35.3125 8.49609 35.4797 8.36365 35.7443L7.01721 38.4375H5.15625V33.75Z" fill="#06357A"/>
</svg>
