<svg width="41" height="40" viewBox="0 0 41 40" fill="none" xmlns="http://www.w3.org/2000/svg">
<g clip-path="url(#clip0)">
<path d="M33.0244 25.5743L28.6322 28.4226C28.0766 27.4905 27.0315 26.8698 25.8668 26.8698H21.9882C21.1531 26.8698 20.7619 26.2753 20.37 25.9992C17.3718 23.4503 12.8502 23.4503 9.85354 25.9976L9.00666 26.7136H0.796774C0.356681 26.7136 0 27.0633 0 27.4948V36.8695C0 37.301 0.356681 37.6508 0.796774 37.6508H9.0689L23.3455 39.9838C23.5559 40.0183 23.7722 39.9686 23.9455 39.8447L40.4674 28.0411C40.8216 27.7878 40.9006 27.3013 40.6442 26.9525C38.895 24.5746 35.5504 23.9676 33.0244 25.5743ZM23.2776 38.3887L9.26592 36.0989C9.22266 36.0919 9.17877 36.0883 9.13489 36.0883H1.59355V28.2761H9.30296C9.78631 28.2761 9.92388 27.9398 10.8959 27.1796C13.2987 25.1367 16.923 25.1367 19.3261 27.1799C19.6607 27.4008 20.4435 28.4323 21.9882 28.4323H25.8668C26.7318 28.4323 27.4604 29.1037 27.4604 29.9518C27.4604 30.7941 26.7455 31.4792 25.8668 31.4792H16.3055C15.8658 31.4792 15.5088 31.8289 15.5088 32.2604C15.5088 32.6917 15.8658 33.0417 16.3055 33.0417H25.8668C27.5995 33.0417 29.0141 31.6937 29.053 30.0226L33.8974 26.8814C35.4754 25.8777 37.5022 26.0806 38.8244 27.2815L23.2776 38.3887Z" fill="#06357A"/>
<path d="M25.9744 15.3076C25.9744 15.7391 25.6177 16.0889 25.1776 16.0889C24.7379 16.0889 24.3809 15.7391 24.3809 15.3076C24.3809 14.8761 24.7379 14.5264 25.1776 14.5264C25.6177 14.5264 25.9744 14.8761 25.9744 15.3076Z" fill="#06357A"/>
<path d="M15.5371 19.2136H34.6594C35.0995 19.2136 35.4561 18.8638 35.4561 18.4326V15.3833L37.8692 3.27484C37.9308 2.96539 37.7967 2.64984 37.529 2.47498C37.2613 2.30011 36.9127 2.30011 36.6451 2.47498L30.1371 6.72913L25.7987 0.3479C25.6508 0.130615 25.4022 0 25.1357 0C24.8693 0 24.6206 0.130615 24.4728 0.3479L20.1341 6.72882L13.6264 2.47498C13.3594 2.30042 13.012 2.2998 12.7444 2.47345C12.477 2.64709 12.3419 2.96112 12.4017 3.27026L14.7403 15.3809V18.4326C14.7403 18.8638 15.097 19.2136 15.5371 19.2136ZM19.9131 8.46253C20.2795 8.70178 20.774 8.60474 21.018 8.24585L25.1357 2.18964L29.2534 8.24585C29.4975 8.60474 29.992 8.70178 30.358 8.46253L35.9386 4.81476L34.0033 14.5264H28.7632C28.3231 14.5264 27.9665 14.8761 27.9665 15.3076C27.9665 15.7391 28.3231 16.0889 28.7632 16.0889H33.8626V17.6514H16.3339V16.0889H21.5926C22.0327 16.0889 22.3894 15.7391 22.3894 15.3076C22.3894 14.8761 22.0327 14.5264 21.5926 14.5264H16.1972L14.3198 4.80621L19.9131 8.46253Z" fill="#06357A"/>
</g>
<defs>
<clipPath id="clip0">
<rect width="40.7948" height="40" fill="white"/>
</clipPath>
</defs>
</svg>
