<svg width="40" height="40" viewBox="0 0 40 40" fill="none" xmlns="http://www.w3.org/2000/svg">
<g clip-path="url(#clip0)">
<path d="M37.6562 0H2.34375C1.05133 0 0 1.03085 0 2.29809V28.0366C0 29.3039 1.05133 30.3347 2.34375 30.3347H21.9711C22.6218 32.1618 24.0036 33.6556 25.7712 34.4773V38.4546C25.7712 38.7326 25.925 38.9888 26.1725 39.124C26.4203 39.2593 26.723 39.2521 26.9641 39.1058L28.9062 37.9259L30.8484 39.1058C30.9744 39.1821 31.1169 39.2207 31.2601 39.2207C31.3907 39.2207 31.5216 39.1884 31.64 39.124C31.8875 38.9888 32.0413 38.7326 32.0413 38.4546V34.4773C33.8089 33.6556 35.1907 32.1618 35.8414 30.3347H37.6562C38.9487 30.3347 40 29.3039 40 28.0366V2.29809C40 1.03085 38.9487 0 37.6562 0ZM30.4788 37.0788L29.3176 36.3735C29.0656 36.2206 28.7469 36.2206 28.4949 36.3735L27.3337 37.0788V35.0006C27.8406 35.1092 28.3667 35.1673 28.9062 35.1673C29.4458 35.1673 29.9719 35.1092 30.4788 35.0006V37.0788ZM28.9062 33.6352C25.7184 33.6352 23.125 31.0924 23.125 27.9666C23.125 24.8409 25.7184 22.298 28.9062 22.298C32.0941 22.298 34.6875 24.8409 34.6875 27.9666C34.6875 31.0924 32.0941 33.6352 28.9062 33.6352ZM38.4375 28.0366C38.4375 28.4592 38.0872 28.8027 37.6562 28.8027H36.2003C36.2326 28.5283 36.25 28.2494 36.25 27.9666C36.25 26.3065 35.6738 24.7762 34.7076 23.5569C34.9518 23.4806 35.2075 23.4405 35.4688 23.4405C35.9003 23.4405 36.25 23.0976 36.25 22.6744V7.66029C36.25 7.23718 35.9003 6.89426 35.4688 6.89426C34.0903 6.89426 32.9688 5.79459 32.9688 4.44297C32.9688 4.01986 32.619 3.67694 32.1875 3.67694H23.208C22.7765 3.67694 22.4268 4.01986 22.4268 4.44297C22.4268 4.86608 22.7765 5.20899 23.208 5.20899H31.4816C31.7975 6.79222 33.0728 8.0427 34.6875 8.35241V21.982C34.2868 22.0586 33.9008 22.1942 33.5403 22.3851C32.2757 21.3734 30.6619 20.766 28.9062 20.766C25.8853 20.766 23.2849 22.564 22.1588 25.1257H8.51837C8.20251 23.5425 6.92719 22.292 5.3125 21.9823V8.35241C6.92719 8.0427 8.20251 6.79222 8.51837 5.20899H16.958C17.3895 5.20899 17.7393 4.86608 17.7393 4.44297C17.7393 4.01986 17.3895 3.67694 16.958 3.67694H7.8125C7.38098 3.67694 7.03125 4.01986 7.03125 4.44297C7.03125 5.79459 5.90973 6.89426 4.53125 6.89426C4.09973 6.89426 3.75 7.23718 3.75 7.66029V22.6744C3.75 23.0976 4.09973 23.4405 4.53125 23.4405C5.90973 23.4405 7.03125 24.5401 7.03125 25.8918C7.03125 26.3149 7.38098 26.6578 7.8125 26.6578H21.6846C21.6046 27.0824 21.5625 27.5199 21.5625 27.9666C21.5625 28.2494 21.5799 28.5283 21.6122 28.8027H2.34375C1.91284 28.8027 1.5625 28.4592 1.5625 28.0366V2.29809C1.5625 1.87557 1.91284 1.53206 2.34375 1.53206H37.6562C38.0872 1.53206 38.4375 1.87557 38.4375 2.29809V28.0366Z" fill="#06357A"/>
<path d="M28.9062 24.1365C26.7523 24.1365 25 25.8547 25 27.9666C25 30.0786 26.7523 31.7968 28.9062 31.7968C31.0602 31.7968 32.8125 30.0786 32.8125 27.9666C32.8125 25.8547 31.0602 24.1365 28.9062 24.1365ZM28.9062 30.2647C27.6138 30.2647 26.5625 29.2339 26.5625 27.9666C26.5625 26.6994 27.6138 25.6685 28.9062 25.6685C30.1987 25.6685 31.25 26.6994 31.25 27.9666C31.25 29.2339 30.1987 30.2647 28.9062 30.2647Z" fill="#06357A"/>
<path d="M16.1768 11.7585C16.1768 13.8705 17.9291 15.5887 20.083 15.5887C22.2369 15.5887 23.9893 13.8705 23.9893 11.7585C23.9893 9.64658 22.2369 7.9284 20.083 7.9284C17.9291 7.9284 16.1768 9.64658 16.1768 11.7585ZM22.4268 11.7585C22.4268 13.0258 21.3754 14.0566 20.083 14.0566C18.7906 14.0566 17.7393 13.0258 17.7393 11.7585C17.7393 10.4913 18.7906 9.46046 20.083 9.46046C21.3754 9.46046 22.4268 10.4913 22.4268 11.7585Z" fill="#06357A"/>
<path d="M12.4756 18.2698C12.4756 18.6929 12.8253 19.0358 13.2568 19.0358H26.7426C27.1741 19.0358 27.5238 18.6929 27.5238 18.2698C27.5238 17.8467 27.1741 17.5038 26.7426 17.5038H13.2568C12.8253 17.5038 12.4756 17.8467 12.4756 18.2698Z" fill="#06357A"/>
<path d="M22.3438 20.8743H17.6562C17.2247 20.8743 16.875 21.2172 16.875 21.6403C16.875 22.0634 17.2247 22.4063 17.6562 22.4063H22.3438C22.7753 22.4063 23.125 22.0634 23.125 21.6403C23.125 21.2172 22.7753 20.8743 22.3438 20.8743Z" fill="#06357A"/>
<path d="M3.97888 26.4334C4.12415 26.5758 4.32587 26.6578 4.53125 26.6578C4.73663 26.6578 4.93835 26.5758 5.08362 26.4334C5.22888 26.2909 5.3125 26.0931 5.3125 25.8918C5.3125 25.6904 5.22888 25.4926 5.08362 25.3502C4.93835 25.2077 4.73663 25.1257 4.53125 25.1257C4.32587 25.1257 4.12415 25.2077 3.97888 25.3502C3.83362 25.4926 3.75 25.6904 3.75 25.8918C3.75 26.0931 3.83362 26.2909 3.97888 26.4334Z" fill="#06357A"/>
<path d="M4.53125 3.67693C4.32587 3.67693 4.12415 3.75892 3.97888 3.90136C3.83362 4.04379 3.75 4.24158 3.75 4.44296C3.75 4.64434 3.83362 4.84213 3.97888 4.98457C4.12415 5.127 4.32587 5.20899 4.53125 5.20899C4.73663 5.20899 4.93835 5.127 5.08362 4.98457C5.22888 4.84213 5.3125 4.64434 5.3125 4.44296C5.3125 4.24158 5.22888 4.04379 5.08362 3.90136C4.93835 3.75892 4.73663 3.67693 4.53125 3.67693Z" fill="#06357A"/>
<path d="M35.4688 3.67693C35.2634 3.67693 35.0616 3.75892 34.9164 3.90136C34.7711 4.04379 34.6875 4.24158 34.6875 4.44296C34.6875 4.64434 34.7711 4.84213 34.9164 4.98457C35.0616 5.127 35.2634 5.20899 35.4688 5.20899C35.6741 5.20899 35.8759 5.127 36.0211 4.98457C36.1664 4.84213 36.25 4.64434 36.25 4.44296C36.25 4.24158 36.1664 4.04379 36.0211 3.90136C35.8759 3.75892 35.6741 3.67693 35.4688 3.67693Z" fill="#06357A"/>
<path d="M20.083 5.20899C20.2893 5.20899 20.4901 5.127 20.6354 4.98457C20.7816 4.84213 20.8643 4.64434 20.8643 4.44296C20.8643 4.24158 20.7816 4.04379 20.6354 3.90136C20.4901 3.75892 20.2887 3.67693 20.083 3.67693C19.8776 3.67693 19.6762 3.75892 19.5306 3.90136C19.3854 4.04379 19.3018 4.24158 19.3018 4.44296C19.3018 4.64434 19.3854 4.84213 19.5306 4.98457C19.6762 5.127 19.8776 5.20899 20.083 5.20899Z" fill="#06357A"/>
</g>
<defs>
<clipPath id="clip0">
<rect width="40" height="39.2207" fill="white"/>
</clipPath>
</defs>
</svg>
