<svg width="40" height="40" viewBox="0 0 40 40" fill="none" xmlns="http://www.w3.org/2000/svg">
<g clip-path="url(#clip0)">
<path d="M11.7534 24.3753C12.3375 24.0806 13.0384 24.3007 13.3493 24.8763L15.5554 28.9615C15.7254 29.2762 16.0876 29.4351 16.4344 29.3476C16.7811 29.26 17.0241 28.9479 17.0241 28.5902V22.6253C17.024 22.1939 16.6743 21.8441 16.2428 21.8441C15.8113 21.8441 15.4615 22.1939 15.4615 22.6254V25.4996L14.724 24.1339C14.0083 22.8087 12.3941 22.3018 11.0496 22.9804C9.89887 23.5609 9.30629 24.8414 9.60855 26.0943L11.0388 32.0225C11.3731 33.4083 11.9691 34.6945 12.8102 35.8455L15.6121 39.6797C15.7651 39.8891 16.0026 40.0001 16.2435 40.0001C16.4034 40.0001 16.5648 39.9511 16.7038 39.8495C17.0522 39.5949 17.1283 39.1061 16.8736 38.7577L14.0718 34.9236C13.3529 33.9398 12.8435 32.8405 12.5578 31.6561L11.1275 25.7278C10.9962 25.1836 11.2536 24.6275 11.7534 24.3753Z" fill="#06357A"/>
<path d="M29.3929 21.0454C28.9319 21.0454 28.4979 21.1634 28.1194 21.3707C27.7361 20.3721 26.7677 19.6611 25.6358 19.6611C25.1476 19.6611 24.6901 19.7939 24.2964 20.0243C23.8756 19.1089 22.9505 18.4712 21.8787 18.4712C21.4876 18.4712 21.1162 18.5568 20.7815 18.709V14.9738C20.7815 13.5072 19.5883 12.314 18.1217 12.314C16.655 12.314 15.4619 13.5071 15.4619 14.9738V16.328C15.4619 16.7594 15.8117 17.1093 16.2432 17.1093C16.6747 17.1093 17.0244 16.7594 17.0244 16.328V14.9739C17.0244 14.3689 17.5167 13.8766 18.1217 13.8766C18.7267 13.8766 19.219 14.3689 19.219 14.9739V25.9979C19.219 26.4293 19.5687 26.7791 20.0002 26.7791C20.4317 26.7791 20.7815 26.4293 20.7815 25.9979V21.1309C20.7815 20.5259 21.2736 20.0336 21.8787 20.0336C22.4838 20.0336 22.976 20.5259 22.976 21.1309V25.9979C22.976 26.4293 23.3258 26.7791 23.7572 26.7791C24.1887 26.7791 24.5385 26.4293 24.5385 25.9979V22.3208C24.5385 21.7158 25.0307 21.2235 25.6358 21.2235C26.2408 21.2235 26.733 21.7158 26.733 22.3208V25.9979C26.733 26.4293 27.0828 26.7791 27.5143 26.7791C27.9458 26.7791 28.2955 26.4293 28.2955 25.9979V23.705C28.2955 23.1 28.7878 22.6077 29.3928 22.6077C29.9978 22.6077 30.4901 23.1 30.4901 23.705V30.2971C30.4901 32.0537 30.2235 33.7943 29.6979 35.4704L28.5958 38.9846C28.4668 39.3963 28.6958 39.8348 29.1076 39.9638C29.1854 39.9883 29.264 39.9999 29.3415 39.9999C29.6739 39.9998 29.9821 39.786 30.0868 39.4521L31.1888 35.9379C31.7619 34.1102 32.0526 32.2123 32.0526 30.2971V23.705C32.0526 22.2386 30.8595 21.0454 29.3929 21.0454Z" fill="#06357A"/>
<path d="M39.9344 4.1429C39.7785 3.66329 39.3715 3.3204 38.8724 3.24798L36.4795 2.90102L35.4088 0.732892C35.1856 0.280782 34.7337 0 34.2295 0C34.2295 0 34.2293 0 34.2292 0C33.7248 7.81252e-05 33.273 0.281172 33.0499 0.733517L31.9804 2.90211L29.5877 3.25047C29.0886 3.32313 28.6818 3.66626 28.5262 4.14602C28.3705 4.62571 28.4982 5.14228 28.8594 5.49415L30.5913 7.1815L30.1832 9.56478C30.0981 10.0619 30.2987 10.5548 30.7068 10.851C30.9373 11.0185 31.2069 11.1034 31.4783 11.1034C31.6874 11.1034 31.8977 11.0529 32.0919 10.9508L34.2318 9.82502L36.3724 10.9497C36.8188 11.1844 37.3495 11.1458 37.7574 10.8492C38.1653 10.5526 38.3657 10.0597 38.2802 9.5626L37.8709 7.17954L39.6019 5.49134C39.9629 5.13915 40.0903 4.62243 39.9344 4.1429ZM36.687 6.15165C36.3769 6.45392 36.2356 6.88923 36.309 7.31595L36.6556 9.33338L34.8435 8.38134C34.4602 8.17978 34.0025 8.18002 33.6193 8.38158L31.8077 9.33463L32.1533 7.31689C32.2262 6.89017 32.0848 6.45509 31.7746 6.1529L30.3084 4.72446L32.3341 4.42962C32.7625 4.3672 33.1327 4.09813 33.3241 3.70977L34.2296 1.87399L35.136 3.70923C35.3277 4.09751 35.698 4.36634 36.1266 4.4286L38.1524 4.72243L36.687 6.15165Z" fill="#06357A"/>
<path d="M25.7039 4.1429C25.548 3.66329 25.1411 3.32032 24.642 3.24798L22.2491 2.90102L21.1784 0.732892C20.9551 0.280782 20.5033 0 19.9991 0C19.999 0 19.9988 0 19.9987 0C19.4944 7.81252e-05 19.0425 0.281172 18.8194 0.733517L17.7499 2.90211L15.3572 3.25047C14.8581 3.32313 14.4513 3.66626 14.2957 4.14602C14.14 4.62571 14.2677 5.14228 14.6289 5.49415L16.3608 7.18142L15.9526 9.56471C15.8676 10.0618 16.0682 10.5547 16.4762 10.851C16.7067 11.0184 16.9763 11.1033 17.2477 11.1033C17.4569 11.1033 17.6671 11.0528 17.8613 10.9507L20.0013 9.82502L22.1419 10.9496C22.5883 11.1843 23.1191 11.1457 23.5269 10.8491C23.9348 10.5525 24.1352 10.0596 24.0498 9.56252L23.6404 7.17947L25.3714 5.49126C25.7324 5.13915 25.8598 4.62251 25.7039 4.1429ZM22.4566 6.15165C22.1466 6.45384 22.0053 6.88908 22.0786 7.31595L22.4252 9.33338L20.6131 8.38134C20.2297 8.17986 19.7719 8.17994 19.3889 8.38158L17.5773 9.33463L17.9228 7.31689C17.9958 6.89009 17.8543 6.45501 17.5441 6.1529L16.078 4.72446L18.1037 4.42962C18.532 4.3672 18.9022 4.09813 19.0937 3.70977L19.9992 1.87391L20.9056 3.70923C21.0973 4.09743 21.4675 4.36634 21.8962 4.4286L23.922 4.72243L22.4566 6.15165Z" fill="#06357A"/>
<path d="M11.4735 4.1429C11.3175 3.66329 10.9106 3.3204 10.4114 3.24798L8.01855 2.90102L6.94792 0.732892C6.72464 0.280782 6.27285 0 5.76863 0C5.76855 0 5.76839 0 5.76823 0C5.26394 7.81252e-05 4.81206 0.281172 4.58901 0.733517L3.51948 2.90211L1.12674 3.25047C0.627678 3.32313 0.220958 3.66626 0.0652546 4.14595C-0.0904489 4.62563 0.0371295 5.1422 0.39838 5.49415L2.13034 7.1815L1.72221 9.56478C1.63713 10.0619 1.83776 10.5548 2.24581 10.8511C2.47635 11.0185 2.74588 11.1035 3.01737 11.1034C3.22651 11.1034 3.43675 11.0529 3.63096 10.9508L5.77097 9.8251L7.91152 10.9497C8.35801 11.1842 8.88871 11.1457 9.2966 10.8492C9.70449 10.5526 9.90481 10.0596 9.81942 9.56252L9.41004 7.17947L11.1411 5.49126C11.502 5.13915 11.6294 4.62251 11.4735 4.1429ZM8.22613 6.15157C7.91605 6.45376 7.77472 6.88908 7.84808 7.31595L8.19465 9.33338L6.38269 8.38134C5.99933 8.17986 5.54159 8.17994 5.15847 8.38158L3.34675 9.33471L3.69221 7.31712C3.76534 6.8904 3.62386 6.45525 3.31362 6.15298L1.84752 4.72446L3.87323 4.42962C4.30159 4.3672 4.67175 4.09813 4.86323 3.70977L5.7687 1.87391L6.67511 3.70923C6.86675 4.09743 7.23699 4.36634 7.66566 4.4286L9.69152 4.72243L8.22613 6.15157Z" fill="#06357A"/>
<path d="M16.7955 18.9946C16.6502 18.8492 16.4487 18.7657 16.2432 18.7657C16.0377 18.7657 15.8361 18.8492 15.6908 18.9946C15.5455 19.14 15.4619 19.3414 15.4619 19.5469C15.4619 19.7524 15.5455 19.9539 15.6908 20.0992C15.8361 20.2445 16.0377 20.3282 16.2432 20.3282C16.4486 20.3282 16.6502 20.2446 16.7955 20.0992C16.9408 19.9539 17.0244 19.7524 17.0244 19.5469C17.0244 19.3413 16.9408 19.1398 16.7955 18.9946Z" fill="#06357A"/>
</g>
<defs>
<clipPath id="clip0">
<rect width="40" height="40" fill="white"/>
</clipPath>
</defs>
</svg>
