<svg width="70" height="70" viewBox="0 0 70 70" fill="none" xmlns="http://www.w3.org/2000/svg">
<g clip-path="url(#clip0)">
<path d="M65.8984 0.733582H4.10156C1.83983 0.733582 0 2.53756 0 4.75523V49.7977C0 52.0154 1.83983 53.8194 4.10156 53.8194H38.4495C39.5881 57.0168 42.0063 59.6309 45.0996 61.0688V68.0292C45.0996 68.5157 45.3687 68.9639 45.8018 69.2006C46.2355 69.4373 46.7653 69.4247 47.1872 69.1687L50.5859 67.1039L53.9847 69.1687C54.2052 69.3022 54.4547 69.3698 54.7051 69.3698C54.9337 69.3698 55.1628 69.3132 55.37 69.2006C55.8031 68.9639 56.0723 68.5157 56.0723 68.0292V61.0688C59.1656 59.6309 61.5838 57.0168 62.7224 53.8194H65.8984C68.1602 53.8194 70 52.0154 70 49.7977V4.75523C70 2.53756 68.1602 0.733582 65.8984 0.733582ZM53.3379 65.6214L51.3058 64.3872C50.8647 64.1196 50.3072 64.1196 49.866 64.3872L47.8339 65.6214V61.9847C48.721 62.1748 49.6417 62.2764 50.5859 62.2764C51.5302 62.2764 52.4509 62.1748 53.3379 61.9847V65.6214ZM50.5859 59.5953C45.0072 59.5953 40.4688 55.1453 40.4688 49.6752C40.4688 44.2051 45.0072 39.7551 50.5859 39.7551C56.1647 39.7551 60.7031 44.2051 60.7031 49.6752C60.7031 55.1453 56.1647 59.5953 50.5859 59.5953ZM67.2656 49.7977C67.2656 50.5371 66.6525 51.1383 65.8984 51.1383H63.3504C63.4071 50.6581 63.4375 50.17 63.4375 49.6752C63.4375 46.77 62.4292 44.092 60.7384 41.9581C61.1656 41.8246 61.6132 41.7544 62.0703 41.7544C62.8255 41.7544 63.4375 41.1543 63.4375 40.4139V14.1391C63.4375 13.3986 62.8255 12.7985 62.0703 12.7985C59.658 12.7985 57.6953 10.8741 57.6953 8.50877C57.6953 7.76833 57.0833 7.16822 56.3281 7.16822H40.614C39.8589 7.16822 39.2468 7.76833 39.2468 8.50877C39.2468 9.24922 39.8589 9.84932 40.614 9.84932H55.0928C55.6456 12.62 57.8774 14.8083 60.7031 15.3503V39.2021C60.0019 39.3362 59.3263 39.5734 58.6956 39.9075C56.4825 38.137 53.6584 37.074 50.5859 37.074C45.2993 37.074 40.7486 40.2206 38.7779 44.7036H14.9072C14.3544 41.933 12.1226 39.7446 9.29688 39.2027V15.3503C12.1226 14.8083 14.3544 12.62 14.9072 9.84932H29.6765C30.4317 9.84932 31.0437 9.24922 31.0437 8.50877C31.0437 7.76833 30.4317 7.16822 29.6765 7.16822H13.6719C12.9167 7.16822 12.3047 7.76833 12.3047 8.50877C12.3047 10.8741 10.342 12.7985 7.92969 12.7985C7.17453 12.7985 6.5625 13.3986 6.5625 14.1391V40.4139C6.5625 41.1543 7.17453 41.7544 7.92969 41.7544C10.342 41.7544 12.3047 43.6788 12.3047 46.0442C12.3047 46.7846 12.9167 47.3847 13.6719 47.3847H37.948C37.8081 48.1278 37.7344 48.8934 37.7344 49.6752C37.7344 50.17 37.7648 50.6581 37.8214 51.1383H4.10156C3.34747 51.1383 2.73438 50.5371 2.73438 49.7977V4.75523C2.73438 4.01583 3.34747 3.41468 4.10156 3.41468H65.8984C66.6525 3.41468 67.2656 4.01583 67.2656 4.75523V49.7977Z" fill="#06357A"/>
<path d="M50.5859 42.9724C46.8166 42.9724 43.75 45.9792 43.75 49.6752C43.75 53.3711 46.8166 56.3779 50.5859 56.3779C54.3553 56.3779 57.4219 53.3711 57.4219 49.6752C57.4219 45.9792 54.3553 42.9724 50.5859 42.9724ZM50.5859 53.6968C48.3242 53.6968 46.4844 51.8928 46.4844 49.6752C46.4844 47.4575 48.3242 45.6535 50.5859 45.6535C52.8477 45.6535 54.6875 47.4575 54.6875 49.6752C54.6875 51.8928 52.8477 53.6968 50.5859 53.6968Z" fill="#06357A"/>
<path d="M28.3096 21.311C28.3096 25.007 31.3761 28.0138 35.1455 28.0138C38.9149 28.0138 41.9814 25.007 41.9814 21.311C41.9814 17.6151 38.9149 14.6083 35.1455 14.6083C31.3761 14.6083 28.3096 17.6151 28.3096 21.311ZM39.2471 21.311C39.2471 23.5287 37.4072 25.3327 35.1455 25.3327C32.8838 25.3327 31.0439 23.5287 31.0439 21.311C31.0439 19.0934 32.8838 17.2894 35.1455 17.2894C37.4072 17.2894 39.2471 19.0934 39.2471 21.311Z" fill="#06357A"/>
<path d="M21.833 32.7057C21.833 33.4462 22.445 34.0463 23.2002 34.0463H46.8002C47.5554 34.0463 48.1674 33.4462 48.1674 32.7057C48.1674 31.9653 47.5554 31.3652 46.8002 31.3652H23.2002C22.445 31.3652 21.833 31.9653 21.833 32.7057Z" fill="#06357A"/>
<path d="M39.1016 37.2635H30.8984C30.1433 37.2635 29.5312 37.8637 29.5312 38.6041C29.5312 39.3445 30.1433 39.9446 30.8984 39.9446H39.1016C39.8567 39.9446 40.4688 39.3445 40.4688 38.6041C40.4688 37.8637 39.8567 37.2635 39.1016 37.2635Z" fill="#06357A"/>
<path d="M6.96304 46.992C7.21725 47.2412 7.57027 47.3847 7.92969 47.3847C8.28911 47.3847 8.64212 47.2412 8.89633 46.992C9.15054 46.7427 9.29688 46.3966 9.29688 46.0442C9.29688 45.6917 9.15054 45.3456 8.89633 45.0964C8.64212 44.8471 8.28911 44.7036 7.92969 44.7036C7.57027 44.7036 7.21725 44.8471 6.96304 45.0964C6.70883 45.3456 6.5625 45.6917 6.5625 46.0442C6.5625 46.3966 6.70883 46.7427 6.96304 46.992Z" fill="#06357A"/>
<path d="M7.92969 7.16821C7.57027 7.16821 7.21725 7.31169 6.96304 7.56095C6.70883 7.81021 6.5625 8.15634 6.5625 8.50876C6.5625 8.86118 6.70883 9.20731 6.96304 9.45657C7.21725 9.70583 7.57027 9.84931 7.92969 9.84931C8.28911 9.84931 8.64212 9.70583 8.89633 9.45657C9.15054 9.20731 9.29688 8.86118 9.29688 8.50876C9.29688 8.15634 9.15054 7.81021 8.89633 7.56095C8.64212 7.31169 8.28911 7.16821 7.92969 7.16821Z" fill="#06357A"/>
<path d="M62.0703 7.16821C61.7109 7.16821 61.3579 7.31169 61.1037 7.56095C60.8495 7.81021 60.7031 8.15634 60.7031 8.50876C60.7031 8.86118 60.8495 9.20731 61.1037 9.45657C61.3579 9.70583 61.7109 9.84931 62.0703 9.84931C62.4297 9.84931 62.7827 9.70583 63.037 9.45657C63.2912 9.20731 63.4375 8.86118 63.4375 8.50876C63.4375 8.15634 63.2912 7.81021 63.037 7.56095C62.7827 7.31169 62.4297 7.16821 62.0703 7.16821Z" fill="#06357A"/>
<path d="M35.1445 9.84931C35.5056 9.84931 35.857 9.70583 36.1112 9.45657C36.367 9.20731 36.5117 8.86118 36.5117 8.50876C36.5117 8.15634 36.367 7.81021 36.1112 7.56095C35.857 7.31169 35.5045 7.16821 35.1445 7.16821C34.7851 7.16821 34.4326 7.31169 34.1779 7.56095C33.9237 7.81021 33.7773 8.15634 33.7773 8.50876C33.7773 8.86118 33.9237 9.20731 34.1779 9.45657C34.4326 9.70583 34.7851 9.84931 35.1445 9.84931Z" fill="#06357A"/>
</g>
<defs>
<clipPath id="clip0">
<rect width="70" height="68.6362" fill="white" transform="translate(0 0.733582)"/>
</clipPath>
</defs>
</svg>
