<svg width="20" height="20" viewBox="0 0 20 20" fill="none" xmlns="http://www.w3.org/2000/svg">
<path d="M9.36313 9.02326C9.61119 8.77519 9.61119 8.37209 9.36313 8.12403C9.11507 7.87597 8.71197 7.87597 8.4639 8.12403L5.09956 11.4884C4.52592 12.062 4.21584 12.8062 4.21584 13.6124C4.21584 14.4186 4.52592 15.1628 5.09956 15.7364C6.27786 16.9147 8.18484 16.9147 9.34763 15.7364L16.9445 8.13954C17.7352 7.34884 18.1693 6.29457 18.1693 5.17829C18.1693 4.06202 17.7352 3.00775 16.9445 2.21705C15.3011 0.573643 12.65 0.573643 11.0065 2.21705L3.42515 9.79845C2.40189 10.8217 1.84375 12.1705 1.84375 13.6124C1.84375 15.0543 2.40189 16.4186 3.42515 17.4264C4.4484 18.4496 5.79724 19.0078 7.2391 19.0078C8.68096 19.0078 10.0453 18.4496 11.0531 17.4264L14.4174 14.062C14.6655 13.814 14.6655 13.4109 14.4174 13.1628C14.1693 12.9147 13.7662 12.9147 13.5182 13.1628L10.1538 16.5271C9.37863 17.3023 8.33987 17.7364 7.2391 17.7364C6.13832 17.7364 5.09956 17.3023 4.32437 16.5271C3.54918 15.7519 3.11507 14.7132 3.11507 13.6124C3.11507 12.5116 3.54918 11.4729 4.32437 10.6977L11.9058 3.11628C12.4639 2.55814 13.1926 2.26357 13.9678 2.26357C14.743 2.26357 15.4872 2.57364 16.0298 3.11628C16.5879 3.67442 16.8825 4.4031 16.8825 5.17829C16.8825 5.95349 16.5724 6.69767 16.0298 7.24031L8.4329 14.8372C7.76623 15.5039 6.66546 15.5039 5.98328 14.8372C5.6577 14.5116 5.47166 14.0775 5.47166 13.6124C5.47166 13.1473 5.6577 12.7132 5.98328 12.3876L9.36313 9.02326Z" fill="#06357A"/>
</svg>
