<svg width="25" height="25" viewBox="0 0 25 25" fill="none" xmlns="http://www.w3.org/2000/svg">
<path d="M12.0176 16.9406C12.3037 17.2269 12.7674 17.2267 13.0533 16.9406L16.1913 13.8026C16.4774 13.5167 16.4774 13.0528 16.1913 12.7669C15.9054 12.4808 15.4417 12.4808 15.1556 12.7669L13.2679 14.6546V9.3623C13.2679 8.95776 12.9398 8.62988 12.5355 8.62988C12.1309 8.62988 11.8031 8.95776 11.8031 9.3623V14.6546L9.91535 12.7669C9.62925 12.4808 9.16558 12.4808 8.87947 12.7669C8.59356 13.0528 8.59356 13.5167 8.87947 13.8026L12.0176 16.9406Z" fill="#06357A"/>
<path d="M15.6736 18.8281H9.39746C8.9931 18.8281 8.66504 19.156 8.66504 19.5605C8.66504 19.9649 8.9931 20.293 9.39746 20.293H15.6736C16.0779 20.293 16.406 19.9649 16.406 19.5605C16.406 19.156 16.0781 18.8281 15.6736 18.8281Z" fill="#06357A"/>
<path d="M19.5963 0H8.6132C8.41904 0 8.23269 0.0772476 8.09536 0.214577L3.3884 4.92153C3.25108 5.05886 3.17383 5.24521 3.17383 5.43938V22.6986C3.17383 23.9676 4.20628 25 5.47523 25H19.5963C20.8616 25 21.8977 23.9769 21.8977 22.6986V2.30141C21.8977 1.03607 20.8748 0 19.5963 0ZM8.66528 1.71604V4.65488C8.66528 5.11627 8.2901 5.49145 7.82871 5.49145H4.88987L8.66528 1.71604ZM20.4329 22.6986C20.4329 23.1543 20.0645 23.5352 19.5963 23.5352H5.47523C5.01404 23.5352 4.63867 23.1598 4.63867 22.6986V6.95648H7.82871C9.09767 6.95648 10.1301 5.92403 10.1301 4.65508V1.46484H19.5963C20.0521 1.46484 20.4329 1.83334 20.4329 2.30141V22.6986Z" fill="#06357A"/>
</svg>
