<svg width="18" height="18" viewBox="0 0 18 18" fill="none" xmlns="http://www.w3.org/2000/svg">
<path d="M13.1364 0H4.86355C2.1818 0 0 2.1818 0 4.86355V13.1364C0 15.8182 2.1818 18 4.86355 18H13.1364C15.8182 18 18 15.8182 18 13.1364V4.86355C18 2.1818 15.8182 0 13.1364 0ZM16.5458 13.1364C16.5458 15.0164 15.0164 16.5458 13.1364 16.5458H4.86355C2.98364 16.5458 1.4542 15.0164 1.4542 13.1364V4.86355C1.4542 2.98364 2.98361 1.4542 4.86355 1.4542H13.1364C15.0164 1.4542 16.5458 2.98361 16.5458 4.86355V13.1364Z" fill="#878787"/>
<path d="M13.0283 8.37222C12.9003 7.50924 12.5066 6.72709 11.8897 6.1102C11.2728 5.49335 10.4907 5.0996 9.62772 4.97167C9.23481 4.91342 8.83645 4.91342 8.44358 4.97167C7.37708 5.12984 6.43605 5.69381 5.79379 6.55974C5.15152 7.42568 4.88486 8.48992 5.04302 9.55635C5.20119 10.6228 5.76517 11.5638 6.6311 12.2061C7.33409 12.7275 8.16764 13.0013 9.02711 13.0013C9.22634 13.0013 9.42701 12.9866 9.62768 12.9569C10.6942 12.7987 11.6352 12.2347 12.2775 11.3688C12.9198 10.5029 13.1864 9.43868 13.0283 8.37222ZM9.41439 11.5184C8.73218 11.6197 8.05138 11.449 7.49742 11.0382C6.94347 10.6273 6.58269 10.0253 6.48155 9.34306C6.38037 8.66085 6.55091 7.98005 6.96178 7.4261C7.37269 6.87214 7.97467 6.51137 8.65691 6.41019C8.78256 6.39156 8.90909 6.38224 9.03561 6.38224C9.16214 6.38224 9.2887 6.39156 9.41435 6.41022C10.5475 6.57824 11.4217 7.45243 11.5898 8.58558C11.7986 9.99387 10.8227 11.3096 9.41439 11.5184Z" fill="#878787"/>
<path d="M14.0641 3.93588C13.9286 3.80049 13.7412 3.7229 13.5499 3.7229C13.3586 3.7229 13.1712 3.80046 13.0357 3.93588C12.9003 4.0713 12.8228 4.2584 12.8228 4.45004C12.8228 4.64168 12.9003 4.82878 13.0357 4.9642C13.1712 5.09959 13.3586 5.17718 13.5499 5.17718C13.7412 5.17718 13.9286 5.09962 14.0641 4.9642C14.1994 4.82878 14.277 4.64136 14.277 4.45004C14.277 4.25868 14.1994 4.07127 14.0641 3.93588Z" fill="#878787"/>
</svg>
