<svg width="35" height="35" viewBox="0 0 35 35" fill="none" xmlns="http://www.w3.org/2000/svg">
<path d="M24.51 27.2596C23.6991 26.9698 22.7763 26.7368 21.7795 26.5645C22.4183 25.8146 23.0988 24.983 23.7821 24.0947C27.5517 19.1937 29.463 15.1117 29.463 11.962C29.4629 5.36614 24.0969 0 17.501 0C10.9051 0 5.53906 5.36614 5.53906 11.9619C5.53906 15.1294 7.45053 19.217 11.2204 24.1111C11.9005 24.994 12.5778 25.8203 13.214 26.5658C12.2205 26.7379 11.3007 26.9706 10.492 27.2595C7.64822 28.2758 7.05131 29.6406 7.05131 30.6066C7.05131 31.5726 7.64822 32.9375 10.492 33.9537C12.3799 34.6284 14.8691 35 17.501 35C20.1329 35 22.6221 34.6284 24.5101 33.9537C27.3538 32.9375 27.9507 31.5726 27.9507 30.6066C27.9507 29.6406 27.3538 28.2758 24.51 27.2596ZM7.58984 11.9619C7.58984 6.49694 12.0359 2.05078 17.501 2.05078C22.966 2.05078 27.4121 6.49694 27.4121 11.9619C27.4121 14.6068 25.5999 18.3633 22.1713 22.825C20.3367 25.2124 18.4822 27.2162 17.4996 28.2381C16.5202 27.2232 14.6763 25.2371 12.845 22.8596C9.40704 18.3964 7.58984 14.628 7.58984 11.9619ZM23.8199 32.0225C22.1479 32.6201 19.9037 32.9492 17.501 32.9492C15.0983 32.9492 12.8542 32.6201 11.1821 32.0225C9.66674 31.481 9.10209 30.8666 9.10209 30.6066C9.10209 30.3466 9.66681 29.7322 11.1821 29.1908C12.2155 28.8215 13.4682 28.5555 14.8411 28.4057C15.9553 29.6219 16.7258 30.3758 16.7853 30.4338L17.5024 31.1327L18.2181 30.4324C18.2776 30.3743 19.0448 29.6205 20.1551 28.4054C21.5303 28.555 22.7851 28.8209 23.82 29.1908C25.3353 29.7322 25.9 30.3466 25.9 30.6066C25.9 30.8666 25.3353 31.481 23.8199 32.0225Z" fill="#06357A"/>
<path d="M23.969 11.9619C23.969 8.39493 21.0671 5.49301 17.5001 5.49301C13.9332 5.49301 11.0312 8.39493 11.0312 11.9619C11.0312 15.5289 13.9332 18.4308 17.5001 18.4308C21.0671 18.4308 23.969 15.5289 23.969 11.9619ZM13.082 11.9619C13.082 9.52574 15.064 7.54379 17.5001 7.54379C19.9363 7.54379 21.9182 9.52574 21.9182 11.9619C21.9182 14.3981 19.9363 16.3801 17.5001 16.3801C15.064 16.3801 13.082 14.3981 13.082 11.9619Z" fill="#06357A"/>
</svg>
