<svg width="70" height="70" viewBox="0 0 70 70" fill="none" xmlns="http://www.w3.org/2000/svg">
<g clip-path="url(#clip0)">
<path d="M14.6289 26.2041C14.6289 37.2919 23.8286 46.3124 35.1368 46.3124C46.4449 46.3124 55.6446 37.2919 55.6446 26.2041C55.6446 15.1162 46.4449 6.09579 35.1368 6.09579C23.8286 6.09579 14.6289 15.1162 14.6289 26.2041ZM35.1368 8.7769C44.9373 8.7769 52.9102 16.5945 52.9102 26.2041C52.9102 35.8136 44.9373 43.6313 35.1368 43.6313C25.3362 43.6313 17.3633 35.8136 17.3633 26.2041C17.3633 16.5945 25.3362 8.7769 35.1368 8.7769Z" fill="#06357A"/>
<path d="M22.4756 23.8141L27.7751 28.9339L26.5558 36.1294C26.4709 36.6305 26.6818 37.1353 27.1011 37.4338C27.5198 37.7323 28.0747 37.7726 28.5345 37.5391L35.1371 34.1772L41.7391 37.5391C42.1952 37.771 42.7501 37.7349 43.1725 37.4338C43.5918 37.1353 43.8027 36.6305 43.7178 36.1294L42.4986 28.9339L47.798 23.8141C48.1671 23.458 48.299 22.9281 48.1388 22.4447C47.9785 21.9619 47.554 21.6095 47.0418 21.5336L39.6873 20.448L36.3595 13.9228C36.1283 13.4688 35.6546 13.1818 35.1371 13.1818C34.619 13.1818 34.1459 13.4688 33.9141 13.9228L30.5864 20.448L23.2318 21.5336C22.7197 21.609 22.2951 21.9619 22.1349 22.4447C21.9746 22.9281 22.1071 23.458 22.4756 23.8141ZM31.6956 22.9956C32.1357 22.9307 32.5159 22.66 32.7151 22.2698L35.1371 17.5198L37.559 22.2698C37.7582 22.66 38.1385 22.9307 38.5786 22.9956L43.9314 23.7858L40.0739 27.5116C39.7572 27.818 39.612 28.2563 39.6846 28.6867L40.5722 33.9238L35.7667 31.4773C35.5697 31.3767 35.3534 31.3264 35.1371 31.3264C34.9208 31.3264 34.7045 31.3767 34.5069 31.4773L29.7014 33.9238L30.589 28.6867C30.6622 28.2563 30.5169 27.818 30.1997 27.5116L26.3427 23.7858L31.6956 22.9956Z" fill="#06357A"/>
<path d="M36.5039 2.07413C36.5039 2.81458 35.8919 3.41469 35.1367 3.41469C34.3816 3.41469 33.7695 2.81458 33.7695 2.07413C33.7695 1.33369 34.3816 0.733582 35.1367 0.733582C35.8919 0.733582 36.5039 1.33369 36.5039 2.07413Z" fill="#06357A"/>
<path d="M28.6933 1.5251C17.1924 4.40362 9.16016 14.5525 9.16016 26.2054C9.16016 33.4428 12.2636 40.2624 17.7115 45.092L9.47472 59.3254C9.20982 59.7836 9.24294 60.3513 9.5591 60.7765C9.87526 61.2022 10.4157 61.407 10.9418 61.2996L20.2958 59.3951L23.5835 68.4789C23.7618 68.9732 24.2185 69.3194 24.7515 69.366C25.2844 69.4126 25.7955 69.1492 26.0599 68.6931L35.1368 53.0463L44.2131 68.6931C44.4577 69.1146 44.9127 69.3707 45.4008 69.3707C45.4409 69.3707 45.4815 69.3691 45.5215 69.366C46.0545 69.3194 46.5111 68.9727 46.69 68.4789L49.9772 59.3951L59.3312 61.2996C59.8567 61.4064 60.3977 61.2017 60.7139 60.7765C61.0306 60.3513 61.0631 59.7836 60.7983 59.3254L52.5615 45.092C58.0094 40.2624 61.1128 33.4428 61.1128 26.2054C61.1128 14.5525 53.0806 4.40362 41.5802 1.5251C40.848 1.34182 40.104 1.77488 39.9171 2.49229C39.7302 3.20969 40.1719 3.93967 40.9035 4.12295C51.1927 6.69827 58.379 15.7789 58.379 26.2054C58.379 38.8951 47.8682 48.9948 35.1368 48.9948C22.3963 48.9948 11.8945 38.8867 11.8945 26.2054C11.8945 15.7789 19.0803 6.69827 29.3695 4.12295C30.1011 3.93967 30.5428 3.20969 30.3564 2.49229C30.1695 1.77488 29.4255 1.34182 28.6933 1.5251ZM25.1611 64.8206L22.4742 57.3968C22.2457 56.7653 21.577 56.3961 20.9078 56.5323L13.344 58.0723L19.8627 46.8075C23.6636 49.5169 28.1641 51.1674 32.844 51.5759L25.1611 64.8206ZM49.3651 56.5323C48.6965 56.3961 48.0273 56.7653 47.7987 57.3968L45.1124 64.8206L37.4289 51.5759C42.1094 51.1674 46.6094 49.5169 50.4108 46.8075L56.9295 58.0723L49.3651 56.5323Z" fill="#06357A"/>
</g>
<defs>
<clipPath id="clip0">
<rect width="70" height="68.6362" fill="white" transform="translate(0 0.733582)"/>
</clipPath>
</defs>
</svg>
