<svg width="20" height="20" viewBox="0 0 20 20" fill="none" xmlns="http://www.w3.org/2000/svg">
<g clip-path="url(#clip0)">
<path d="M7.73056 18.9716C7.61902 19.295 7.31613 19.4983 6.99219 19.4983C6.90765 19.4983 6.82175 19.4844 6.73737 19.4553C2.70752 18.065 0 14.2653 0 9.99985C0 7.3288 1.04019 4.81766 2.92892 2.92892C4.81766 1.04019 7.3288 0 9.99985 0C12.6709 0 15.1822 1.04019 17.0709 2.92892C18.9597 4.81766 19.9998 7.3288 19.9998 9.99985C19.9998 10.4314 19.6501 10.7811 19.2186 10.7811C18.7871 10.7811 18.4373 10.4314 18.4373 9.99985C18.4373 5.34744 14.6523 1.5625 9.99985 1.5625C5.34744 1.5625 1.5625 5.34744 1.5625 9.99985C1.5625 13.5989 3.84689 16.8053 7.24686 17.9782C7.65488 18.1189 7.8714 18.5637 7.73056 18.9716ZM9.2186 3.75V9.67346L6.32599 12.5299C6.01898 12.8331 6.01593 13.3278 6.31897 13.6348C6.47186 13.7895 6.67328 13.867 6.875 13.867C7.07321 13.867 7.27158 13.792 7.42386 13.6417L10.5489 10.5559C10.6975 10.4089 10.7811 10.2087 10.7811 9.99985V3.75C10.7811 3.31848 10.4314 2.96875 9.99985 2.96875C9.56833 2.96875 9.2186 3.31848 9.2186 3.75ZM19.9664 18.0856C20.0644 18.558 19.9457 19.0437 19.6408 19.4186C19.3402 19.7879 18.8966 19.9998 18.4238 19.9998H10.7947C10.3192 19.9998 9.87442 19.7882 9.57413 19.4193C9.272 19.048 9.15466 18.5657 9.25217 18.096C9.50455 16.8802 10.1729 15.7739 11.1343 14.9809C11.4983 14.6806 11.8983 14.4307 12.3225 14.2354C11.85 13.6984 11.5623 12.995 11.5623 12.2252C11.5623 10.545 12.9292 9.17831 14.6092 9.17831C16.2894 9.17831 17.6561 10.545 17.6561 12.2252C17.6561 12.995 17.3685 13.6984 16.8959 14.2354C17.3201 14.4307 17.7202 14.6806 18.0841 14.9809C19.0262 15.7582 19.687 16.8362 19.9507 18.0232C19.9567 18.0437 19.962 18.0644 19.9664 18.0856ZM13.1248 12.2252C13.1248 13.0435 13.7907 13.7094 14.6092 13.7094C15.4277 13.7094 16.0936 13.0435 16.0936 12.2252C16.0936 11.4067 15.4277 10.7408 14.6092 10.7408C13.7907 10.7408 13.1248 11.4067 13.1248 12.2252ZM18.4367 18.4152C18.4367 18.4146 18.4366 18.4142 18.4364 18.4135C18.0614 16.6069 16.4517 15.2954 14.6092 15.2954C12.7667 15.2954 11.1571 16.6069 10.782 18.4135C10.7784 18.4311 10.7904 18.4369 10.7906 18.437C10.7909 18.437 10.7922 18.4373 10.7947 18.4373H18.4238C18.4242 18.4369 18.4348 18.429 18.4367 18.4152Z" fill="#717171"/>
</g>
<defs>
<clipPath id="clip0">
<rect width="20" height="20" fill="white"/>
</clipPath>
</defs>
</svg>
