<svg width="70" height="70" viewBox="0 0 70 70" fill="none" xmlns="http://www.w3.org/2000/svg">
<g clip-path="url(#clip0)">
<path d="M56.6667 44.6167L49.1301 49.5039C48.1768 47.9047 46.3834 46.8396 44.385 46.8396H37.7296C36.2967 46.8396 35.6254 45.8195 34.953 45.3456C29.8084 40.9721 22.0496 40.9721 16.9077 45.343L15.4546 46.5715H1.36719C0.61203 46.5715 0 47.1716 0 47.912V63.9981C0 64.7386 0.61203 65.3387 1.36719 65.3387H15.5614L40.0586 69.342C40.4196 69.4012 40.7908 69.3158 41.0883 69.1032L69.4382 48.8494C70.0459 48.4147 70.1816 47.58 69.7415 46.9815C66.7401 42.9012 61.0011 41.8597 56.6667 44.6167ZM39.9422 66.6048L15.8994 62.6759C15.8252 62.6638 15.7499 62.6576 15.6746 62.6576H2.73438V49.2526H15.963C16.7924 49.2526 17.0284 48.6755 18.6963 47.3711C22.8192 43.8658 29.0383 43.8658 33.1618 47.3716C33.7359 47.7507 35.079 49.5207 37.7296 49.5207H44.385C45.8691 49.5207 47.1194 50.6727 47.1194 52.128C47.1194 53.5732 45.8926 54.7488 44.385 54.7488H27.9787C27.2241 54.7488 26.6116 55.3489 26.6116 56.0894C26.6116 56.8293 27.2241 57.4299 27.9787 57.4299H44.385C47.3581 57.4299 49.7854 55.117 49.8521 52.2494L58.1647 46.8595C60.8724 45.1372 64.3502 45.4854 66.6189 47.546L39.9422 66.6048Z" fill="#06357A"/>
<path d="M44.5693 27C44.5693 27.7404 43.9573 28.3405 43.2021 28.3405C42.4475 28.3405 41.835 27.7404 41.835 27C41.835 26.2595 42.4475 25.6594 43.2021 25.6594C43.9573 25.6594 44.5693 26.2595 44.5693 27Z" fill="#06357A"/>
<path d="M26.6595 33.7022H59.4714C60.2266 33.7022 60.8386 33.1021 60.8386 32.3622V27.1299L64.9792 6.3529C65.0849 5.82191 64.8547 5.28046 64.3954 4.9804C63.9361 4.68035 63.338 4.68035 62.8787 4.9804L51.7116 12.2801L44.2673 1.33055C44.0137 0.957705 43.5869 0.733582 43.1298 0.733582C42.6726 0.733582 42.2459 0.957705 41.9923 1.33055L34.5475 12.2796L23.3809 4.9804C22.9227 4.68087 22.3266 4.67983 21.8674 4.97778C21.4086 5.27574 21.1768 5.81458 21.2794 6.34504L25.2923 27.1257V32.3622C25.2923 33.1021 25.9043 33.7022 26.6595 33.7022ZM34.1683 15.2545C34.7969 15.665 35.6455 15.4985 36.0642 14.8827L43.1298 4.49079L50.1954 14.8827C50.6141 15.4985 51.4627 15.665 52.0907 15.2545L61.6664 8.99525L58.3456 25.6594H49.3542C48.5991 25.6594 47.9871 26.2595 47.9871 27C47.9871 27.7404 48.5991 28.3405 49.3542 28.3405H58.1042V31.0216H28.0266V28.3405H37.0501C37.8052 28.3405 38.4173 27.7404 38.4173 27C38.4173 26.2595 37.8052 25.6594 37.0501 25.6594H27.7922L24.5708 8.98058L34.1683 15.2545Z" fill="#06357A"/>
</g>
<defs>
<clipPath id="clip0">
<rect width="70" height="68.6362" fill="white" transform="translate(0 0.733582)"/>
</clipPath>
</defs>
</svg>
