<svg width="29" height="44" viewBox="0 0 29 44" fill="none" xmlns="http://www.w3.org/2000/svg">
<path fill-rule="evenodd" clip-rule="evenodd" d="M25.8824 29.9804V14.0196C25.8824 7.468 20.5712 2.15686 14.0196 2.15686C7.468 2.15686 2.15686 7.468 2.15686 14.0196V29.9804C2.15686 36.532 7.468 41.8431 14.0196 41.8431C20.5712 41.8431 25.8824 36.532 25.8824 29.9804ZM14.0196 0C6.27679 0 0 6.27679 0 14.0196V29.9804C0 37.7232 6.27679 44 14.0196 44C21.7624 44 28.0392 37.7232 28.0392 29.9804V14.0196C28.0392 6.27679 21.7624 0 14.0196 0Z" fill="white"/>
<path d="M12.9414 7.54901C12.9414 6.95341 13.4242 6.47058 14.0198 6.47058C14.6154 6.47058 15.0983 6.95341 15.0983 7.54901V15.3137C15.0983 15.9093 14.6154 16.3922 14.0198 16.3922C13.4242 16.3922 12.9414 15.9093 12.9414 15.3137V7.54901Z" fill="white"/>
</svg>
