<svg width="20" height="20" viewBox="0 0 20 20" fill="none" xmlns="http://www.w3.org/2000/svg">
<path d="M19.375 5.62514H16.0112L13.6837 0.970142C13.5275 0.661392 13.1538 0.537642 12.845 0.690142C12.5363 0.845142 12.4113 1.22014 12.565 1.52889L14.6138 5.62514H5.38625L7.43375 1.53014C7.58875 1.22139 7.4625 0.846392 7.15375 0.691392C6.84625 0.538892 6.47 0.662642 6.31625 0.970142L3.98875 5.62514H0.625C0.28 5.62514 0 5.90514 0 6.25014V8.75014C0 9.09514 0.28 9.37514 0.625 9.37514H1.3875L3.76875 18.9014C3.83875 19.1801 4.08875 19.3751 4.375 19.3751H15.625C15.9113 19.3751 16.1612 19.1801 16.2312 18.9014L18.6125 9.37514H19.375C19.72 9.37514 20 9.09514 20 8.75014V6.25014C20 5.90514 19.72 5.62514 19.375 5.62514ZM15.1363 18.1251H4.86375L2.675 9.37514H17.325L15.1363 18.1251ZM18.75 8.12514H1.25V6.87514H18.75V8.12514Z" fill="#231F20"/>
<path d="M10 11.8751C9.655 11.8751 9.375 12.1551 9.375 12.5001V16.2501C9.375 16.5951 9.655 16.8751 10 16.8751C10.345 16.8751 10.625 16.5951 10.625 16.2501V12.5001C10.625 12.1551 10.345 11.8751 10 11.8751Z" fill="#231F20"/>
<path d="M6.875 11.8751C6.53 11.8751 6.25 12.1551 6.25 12.5001V16.2501C6.25 16.5951 6.53 16.8751 6.875 16.8751C7.22 16.8751 7.5 16.5951 7.5 16.2501V12.5001C7.5 12.1551 7.22 11.8751 6.875 11.8751Z" fill="#231F20"/>
<path d="M13.125 11.8751C12.78 11.8751 12.5 12.1551 12.5 12.5001V16.2501C12.5 16.5951 12.78 16.8751 13.125 16.8751C13.47 16.8751 13.75 16.5951 13.75 16.2501V12.5001C13.75 12.1551 13.47 11.8751 13.125 11.8751Z" fill="#231F20"/>
</svg>
