<svg width="30" height="30" viewBox="0 0 30 30" fill="none" xmlns="http://www.w3.org/2000/svg">
<g clip-path="url(#clip0)">
<path d="M7.20016 21.2996C6.44999 21.2996 5.81252 21.5621 5.28747 22.087C4.76262 22.6125 4.5 23.2498 4.5 24C4.5 24.7502 4.76242 25.3876 5.28747 25.913C5.81271 26.438 6.45019 26.7005 7.20016 26.7005C7.93772 26.7005 8.57198 26.438 9.10333 25.913C9.63448 25.3882 9.90006 24.7502 9.90006 24C9.90006 23.2498 9.63455 22.6129 9.10333 22.087C8.57191 21.5625 7.93772 21.2996 7.20016 21.2996Z" fill="#06357A"/>
<path d="M6.59958 15.5998C6.59958 14.7749 6.30596 14.0688 5.7184 13.4808C5.1309 12.8933 4.42453 12.5996 3.59956 12.5996C2.77453 12.5996 2.06829 12.8934 1.48073 13.4808C0.893294 14.0684 0.599609 14.7746 0.599609 15.5998C0.599609 16.4247 0.893228 17.1306 1.48073 17.7183C2.06829 18.306 2.77453 18.5997 3.59956 18.5997C4.42453 18.5997 5.1309 18.306 5.7184 17.7183C6.30596 17.131 6.59958 16.4247 6.59958 15.5998Z" fill="#06357A"/>
<path d="M24.0001 8.70023C24.4123 8.70023 24.766 8.55312 25.0594 8.25951C25.3531 7.96562 25.5003 7.61238 25.5003 7.19996C25.5003 6.78734 25.3531 6.43436 25.0594 6.14067C24.7658 5.84679 24.4123 5.69995 24.0001 5.69995C23.5875 5.69995 23.2342 5.84706 22.9405 6.14067C22.6469 6.43442 22.5 6.78734 22.5 7.19996C22.5 7.61257 22.6469 7.96562 22.9405 8.25951C23.2342 8.55339 23.5875 8.70023 24.0001 8.70023Z" fill="#06357A"/>
<path d="M7.19851 3.90015C6.28587 3.90015 5.50779 4.22207 4.86401 4.86572C4.22016 5.50937 3.89844 6.28752 3.89844 7.19996C3.89844 8.11273 4.22016 8.89055 4.86401 9.53446C5.50799 10.1783 6.28607 10.5002 7.19851 10.5002C8.11096 10.5002 8.8891 10.1781 9.53275 9.53446C10.1764 8.89055 10.4983 8.11254 10.4983 7.19996C10.4983 6.28752 10.1764 5.50937 9.53275 4.86572C8.8891 4.22207 8.11096 3.90015 7.19851 3.90015Z" fill="#06357A"/>
<path d="M28.8732 14.3247C28.5233 13.9746 28.0983 13.7998 27.5985 13.7998C27.0982 13.7998 26.6732 13.9746 26.3233 14.3247C25.9736 14.6747 25.7988 15.0998 25.7988 15.6001C25.7988 16.0998 25.9736 16.5255 26.3233 16.8748C26.6734 17.2249 27.0982 17.3997 27.5985 17.3997C28.0983 17.3997 28.5236 17.2249 28.8732 16.8748C29.2234 16.5251 29.398 16.0998 29.398 15.6001C29.398 15.1 29.2236 14.6749 28.8732 14.3247Z" fill="#06357A"/>
<path d="M23.9986 21.8999C23.4233 21.8999 22.9295 22.106 22.5169 22.5186C22.1048 22.9308 21.8984 23.4247 21.8984 24.0001C21.8984 24.575 22.1048 25.069 22.5169 25.4816C22.9295 25.8942 23.4233 26.1001 23.9986 26.1001C24.5735 26.1001 25.0672 25.8938 25.4798 25.4816C25.8925 25.069 26.0986 24.5752 26.0986 24.0001C26.0986 23.4247 25.8925 22.9313 25.4798 22.5186C25.0673 22.1059 24.5735 21.8999 23.9986 21.8999Z" fill="#06357A"/>
<path d="M15.5995 25.1995C14.937 25.1995 14.3713 25.4343 13.9022 25.9031C13.4337 26.372 13.1992 26.9373 13.1992 27.5999C13.1992 28.2625 13.4334 28.8279 13.9022 29.2967C14.3713 29.7655 14.9367 30.0001 15.5995 30.0001C16.262 30.0001 16.8274 29.7655 17.2963 29.2967C17.7651 28.8279 17.9995 28.2625 17.9995 27.5999C17.9995 26.9373 17.7651 26.372 17.2963 25.9031C16.8274 25.4343 16.262 25.1995 15.5995 25.1995Z" fill="#06357A"/>
<path d="M15.5982 0C14.5983 0 13.7479 0.349834 13.0479 1.04983C12.348 1.74989 11.998 2.60008 11.998 3.6C11.998 4.59998 12.3479 5.44978 13.0479 6.1499C13.7479 6.84977 14.5981 7.1998 15.5982 7.1998C16.5985 7.1998 17.4483 6.84996 18.1481 6.1499C18.8479 5.4501 19.1978 4.59998 19.1978 3.6C19.1978 2.60014 18.8479 1.75015 18.1481 1.04983C17.4483 0.350031 16.5985 0 15.5982 0Z" fill="#06357A"/>
</g>
<defs>
<clipPath id="clip0">
<rect width="30" height="30" fill="white"/>
</clipPath>
</defs>
</svg>
