<svg width="203" height="35" viewBox="0 0 203 35" fill="none" xmlns="http://www.w3.org/2000/svg">
<g clip-path="url(#clip0)">
<path fill-rule="evenodd" clip-rule="evenodd" d="M168.134 0C170.273 0 172.365 0.634557 174.145 1.82343C175.924 3.0123 177.311 4.70209 178.13 6.67911C178.948 8.65613 179.163 10.8316 178.745 12.9304C178.328 15.0292 177.297 16.957 175.784 18.4702C174.271 19.9833 172.343 21.0138 170.244 21.4313C168.146 21.8487 165.97 21.6345 163.993 20.8156C162.016 19.9967 160.326 18.6099 159.137 16.8306C157.949 15.0513 157.314 12.9595 157.314 10.8196C157.321 7.95213 158.463 5.20407 160.49 3.17647C162.518 1.14887 165.266 0.00677887 168.134 0ZM168.134 4.88999C169.306 4.88999 170.453 5.23775 171.428 5.88931C172.403 6.54086 173.163 7.46693 173.612 8.55043C174.061 9.63392 174.178 10.8262 173.949 11.9764C173.72 13.1266 173.156 14.1832 172.326 15.0124C171.497 15.8417 170.441 16.4064 169.29 16.6352C168.14 16.864 166.948 16.7466 165.864 16.2978C164.781 15.849 163.855 15.089 163.203 14.1139C162.552 13.1388 162.204 11.9923 162.204 10.8196C162.221 9.25692 162.853 7.7638 163.962 6.66358C165.072 5.56336 166.571 4.94461 168.134 4.94133V4.88999Z" fill="white"/>
<path fill-rule="evenodd" clip-rule="evenodd" d="M153.387 17.1599H156.172L156.056 21.6905H132.697L133.262 17.1599H135.303C136.029 16.1271 136.62 15.0057 137.061 13.8229C137.52 12.5773 137.847 11.2867 138.036 9.97254C138.246 8.42388 138.358 6.86349 138.37 5.30074V0.513428H153.348V17.1984L153.387 17.1599ZM148.522 4.51783H143.016V6.96924C143.009 8.28617 142.927 9.60163 142.772 10.9095C142.645 12.022 142.404 13.1186 142.054 14.1823C141.709 15.232 141.23 16.2328 140.629 17.1599H148.561V4.51783H148.522Z" fill="white"/>
<path fill-rule="evenodd" clip-rule="evenodd" d="M91.8701 0.50054H101.47C103.014 0.437237 104.55 0.745342 105.95 1.39896C107.007 1.92192 107.856 2.78544 108.363 3.85037C108.85 4.89488 109.1 6.03462 109.094 7.18738C109.094 11.8078 106.527 14.1181 101.393 14.1181H96.7088V21.2156H91.8701V0.50054ZM96.7216 4.54344V10.0623H100.572C101.47 10.114 102.363 9.89971 103.139 9.44627C103.446 9.16797 103.681 8.81948 103.824 8.43058C103.967 8.04169 104.014 7.62394 103.96 7.21304C104.008 6.82661 103.96 6.43426 103.819 6.07131C103.678 5.70837 103.448 5.38621 103.152 5.13384C102.367 4.70405 101.478 4.50389 100.585 4.55628L96.7216 4.54344Z" fill="white"/>
<path fill-rule="evenodd" clip-rule="evenodd" d="M73.5939 0.064239C75.8079 0.0607107 77.9688 0.742146 79.7802 2.0151V0.564789H84.5675V21.2285H79.7802V19.714C78.3898 20.6907 76.7886 21.3258 75.1067 21.5677C73.4248 21.8095 71.7095 21.6514 70.1002 21.106C68.4909 20.5607 67.0328 19.6436 65.8444 18.4291C64.656 17.2146 63.7708 15.737 63.2605 14.1162C62.7502 12.4954 62.6293 10.7771 62.9077 9.10087C63.186 7.42461 63.8557 5.83761 64.8623 4.46869C65.869 3.09978 67.1843 1.98753 68.7014 1.22226C70.2185 0.456978 71.8947 0.0602367 73.5939 0.064239ZM79.7802 10.4218V11.3587C79.6591 12.9167 78.9394 14.3672 77.772 15.4061C76.6047 16.4449 75.0804 16.9914 73.5189 16.9308C71.9574 16.8702 70.48 16.2073 69.3967 15.0811C68.3133 13.9549 67.7082 12.4529 67.7082 10.8902C67.7082 9.32756 68.3133 7.8256 69.3967 6.6994C70.48 5.5732 71.9574 4.91027 73.5189 4.84968C75.0804 4.78908 76.6047 5.33553 77.772 6.37438C78.9394 7.41324 79.6591 8.8638 79.7802 10.4218Z" fill="white"/>
<path fill-rule="evenodd" clip-rule="evenodd" d="M29.1218 9.21537L36.1808 0.552002H41.8922L33.6139 9.95978L42.3671 21.1516H36.399L29.1218 11.0764H29.0319V21.1516H24.2446V0.552002H29.0319V9.21537H29.1218Z" fill="white"/>
<path fill-rule="evenodd" clip-rule="evenodd" d="M44.3823 0.552071H54.65C56.1053 0.461978 57.5562 0.786882 58.8341 1.489C59.6453 1.96222 60.2736 2.69457 60.6181 3.56821C60.8695 4.28609 60.9996 5.04081 61.0031 5.80143C61.0373 6.33438 60.9603 6.86862 60.7769 7.37019C60.5935 7.87175 60.3078 8.32969 59.9379 8.71489C59.2823 9.33954 58.4919 9.80503 57.6276 10.0754C58.8074 10.2629 59.8935 10.8308 60.7208 11.6925C61.1658 12.182 61.5086 12.7554 61.729 13.3791C61.9494 14.0029 62.043 14.6643 62.0042 15.3247C62.0601 16.025 61.9691 16.7292 61.737 17.3922C61.505 18.0553 61.137 18.6625 60.6566 19.1751C59.8251 19.9939 58.7722 20.5516 57.6276 20.7794C56.4735 21.0058 55.2999 21.1176 54.1238 21.1131H44.3823V0.552071ZM49.144 4.32545V8.68922H53.6489C54.2433 8.6985 54.8246 8.51376 55.3046 8.163C55.5505 7.9777 55.7463 7.73388 55.874 7.4537C56.0018 7.17352 56.0575 6.86586 56.0362 6.55867C56.0664 6.23314 56.0126 5.9053 55.8801 5.60646C55.7475 5.30761 55.5405 5.04774 55.2789 4.85167C54.7299 4.49533 54.0848 4.31613 53.4307 4.33828L49.144 4.32545ZM49.144 12.4626V17.3783H54.2008C54.8398 17.3685 55.4613 17.1673 55.9848 16.8007C56.2894 16.5754 56.53 16.2746 56.683 15.928C56.8361 15.5815 56.8962 15.201 56.8576 14.8242C56.9037 14.4567 56.8436 14.0837 56.6844 13.7494C56.5252 13.415 56.2735 13.1332 55.9591 12.9375C55.2091 12.5881 54.3857 12.4252 53.5591 12.4626H49.144Z" fill="white"/>
<path fill-rule="evenodd" clip-rule="evenodd" d="M10.8061 7.18229e-06C13.016 -0.0025521 15.1725 0.678916 16.9796 1.95087V0.500557H21.8182V21.1643H16.9924V19.6626C15.6013 20.6355 14.0007 21.267 12.3201 21.5059C10.6395 21.7448 8.92625 21.5845 7.31916 21.0379C5.71208 20.4913 4.25636 19.5738 3.06995 18.3598C1.88354 17.1458 0.999805 15.6693 0.490357 14.0501C-0.019091 12.4308 -0.139927 10.7143 0.137639 9.03968C0.415205 7.36504 1.08337 5.77933 2.08799 4.41104C3.09261 3.04275 4.40543 1.93036 5.92008 1.164C7.43474 0.397648 9.10862 -0.00112093 10.8061 7.18229e-06ZM16.9796 10.3704V11.3073C16.8585 12.8653 16.1388 14.3158 14.9714 15.3547C13.804 16.3936 12.2797 16.94 10.7182 16.8794C9.15673 16.8188 7.67936 16.1559 6.59602 15.0297C5.51268 13.9035 4.90754 12.4015 4.90754 10.8388C4.90754 9.27617 5.51268 7.7742 6.59602 6.648C7.67936 5.5218 9.15673 4.85888 10.7182 4.79828C12.2797 4.73769 13.804 5.28413 14.9714 6.32299C16.1388 7.36185 16.8585 8.8124 16.9796 10.3704Z" fill="white"/>
<path fill-rule="evenodd" clip-rule="evenodd" d="M121.723 0C123.863 0 125.955 0.634557 127.734 1.82343C129.514 3.0123 130.901 4.70209 131.719 6.67911C132.538 8.65613 132.753 10.8316 132.335 12.9304C131.918 15.0292 130.887 16.957 129.374 18.4702C127.861 19.9833 125.933 21.0138 123.834 21.4313C121.735 21.8487 119.56 21.6345 117.583 20.8156C115.606 19.9967 113.916 18.6099 112.727 16.8306C111.538 15.0513 110.904 12.9595 110.904 10.8196C110.911 7.95213 112.053 5.20407 114.08 3.17647C116.108 1.14887 118.856 0.00677887 121.723 0ZM121.723 4.88999C122.896 4.88999 124.043 5.23775 125.018 5.88931C125.993 6.54086 126.753 7.46693 127.202 8.55043C127.65 9.63392 127.768 10.8262 127.539 11.9764C127.31 13.1266 126.746 14.1832 125.916 15.0124C125.087 15.8417 124.03 16.4064 122.88 16.6352C121.73 16.864 120.538 16.7466 119.454 16.2978C118.371 15.849 117.445 15.089 116.793 14.1139C116.142 13.1388 115.794 11.9923 115.794 10.8196C115.797 9.248 116.423 7.74175 117.534 6.63047C118.646 5.51919 120.152 4.89338 121.723 4.88999Z" fill="white"/>
<path fill-rule="evenodd" clip-rule="evenodd" d="M191.98 0C194.14 0.00706987 196.249 0.658076 198.036 1.86979C199.824 3.08151 201.21 4.79888 202.017 6.80235H196.37C195.564 5.93188 194.516 5.32296 193.361 5.05426C192.206 4.78556 190.997 4.86942 189.89 5.29501C188.783 5.7206 187.829 6.46837 187.151 7.4417C186.474 8.41503 186.103 9.56919 186.088 10.7551C186.074 11.941 186.415 13.1041 187.067 14.0941C187.72 15.0842 188.655 15.8557 189.751 16.309C190.847 16.7623 192.054 16.8766 193.215 16.637C194.377 16.3975 195.44 15.8151 196.267 14.9652H202.03C201.28 16.7725 200.054 18.3427 198.483 19.5086C196.911 20.6745 195.053 21.3924 193.106 21.586C191.159 21.7795 189.196 21.4414 187.426 20.6076C185.655 19.7739 184.144 18.4757 183.054 16.8513C181.963 15.2268 181.333 13.337 181.231 11.383C181.129 9.42893 181.559 7.48382 182.475 5.75474C183.391 4.02566 184.759 2.57733 186.432 1.56395C188.106 0.55057 190.024 0.0100715 191.98 0V0Z" fill="white"/>
<path d="M4.28685 26.1826V27.2864C5.13784 27.2864 5.95397 27.6244 6.55571 28.2262C7.15745 28.8279 7.4955 29.6441 7.4955 30.495C7.4955 31.346 7.15745 32.1622 6.55571 32.7639C5.95397 33.3656 5.13784 33.7037 4.28685 33.7037V34.9872H3.23441V33.7037C2.82069 33.7093 2.41018 33.6305 2.02799 33.472C1.64579 33.3135 1.29995 33.0787 1.01161 32.7819C0.723281 32.4852 0.498518 32.1327 0.351074 31.7461C0.203631 31.3595 0.136607 30.9469 0.154103 30.5336C0.135007 30.1156 0.200889 29.6982 0.347761 29.3065C0.494634 28.9147 0.719445 28.5569 1.00859 28.2545C1.29774 27.9522 1.64522 27.7116 2.03001 27.5474C2.41479 27.3832 2.82889 27.2988 3.24725 27.2992V26.1826H4.28685ZM3.26008 28.0565C2.68038 28.1365 2.15307 28.4347 1.78575 28.8903C1.41844 29.3458 1.23882 29.9244 1.28355 30.5079C1.2462 31.0876 1.43111 31.6598 1.80067 32.1081C2.17024 32.5563 2.69668 32.8469 3.27291 32.9208L3.26008 28.0565ZM4.27401 32.9208C4.85452 32.835 5.38147 32.5339 5.75007 32.0773C6.11868 31.6207 6.30193 31.0421 6.26338 30.4565C6.30388 29.8761 6.12011 29.3022 5.74997 28.8533C5.37983 28.4044 4.85153 28.1145 4.27401 28.0436V32.9208Z" fill="white"/>
<path d="M21.9474 32.0866C21.9426 32.5801 21.9726 33.0734 22.0373 33.5626H21.0362L20.9463 32.7797C20.728 33.0727 20.4429 33.3093 20.1148 33.47C19.7867 33.6308 19.4249 33.7109 19.0596 33.7038C18.8171 33.7216 18.5735 33.6888 18.3442 33.6076C18.115 33.5264 17.905 33.3986 17.7277 33.2321C17.5504 33.0656 17.4096 32.8642 17.3141 32.6405C17.2186 32.4169 17.1705 32.1758 17.1729 31.9326C17.1729 30.4438 18.4564 29.6352 20.8821 29.6352V29.5197C20.902 29.3305 20.8796 29.1393 20.8165 28.9599C20.7535 28.7804 20.6513 28.6172 20.5174 28.4821C20.3835 28.347 20.2213 28.2433 20.0424 28.1786C19.8635 28.1139 19.6725 28.0897 19.4832 28.1079C18.9108 28.1026 18.3492 28.2631 17.866 28.5699L17.6093 27.8127C18.2286 27.4526 18.9337 27.2663 19.65 27.2736C21.5367 27.2736 21.9988 28.5571 21.9988 29.8406L21.9474 32.0866ZM20.8693 30.4181C19.5858 30.4181 18.3024 30.6106 18.3024 31.8043C18.2912 31.9448 18.3102 32.0861 18.3581 32.2187C18.406 32.3513 18.4818 32.4721 18.5802 32.573C18.6787 32.6739 18.7976 32.7526 18.929 32.8037C19.0604 32.8549 19.2012 32.8773 19.342 32.8695C19.6706 32.8808 19.9943 32.7874 20.2665 32.6029C20.5387 32.4184 20.7452 32.1522 20.8565 31.8428C20.8733 31.7236 20.8733 31.6026 20.8565 31.4834L20.8693 30.4181Z" fill="white"/>
<path d="M37.2203 25.3098C36.8008 25.4381 36.3716 25.5326 35.9369 25.5922C35.5084 25.6188 35.0904 25.7354 34.71 25.9345C34.3296 26.1335 33.9955 26.4105 33.7293 26.7473C33.3373 27.3608 33.1036 28.062 33.0491 28.788C33.2356 28.3729 33.5386 28.0209 33.9214 27.7749C34.3042 27.5288 34.7503 27.3992 35.2053 27.4019C36.7198 27.4019 37.7722 28.48 37.7722 30.4437C37.7722 32.4074 36.7326 33.7165 34.9229 33.7165C32.7539 33.7165 32.048 31.6245 32.048 29.5709C31.9768 28.359 32.3109 27.1579 32.9978 26.1569C33.3077 25.7387 33.7045 25.3925 34.1609 25.1422C34.6173 24.8918 35.1224 24.7432 35.6417 24.7066C36.2092 24.6406 36.7711 24.5334 37.323 24.3857L37.2203 25.3098ZM35.077 28.2361C34.7888 28.229 34.5045 28.3036 34.257 28.4512C34.0094 28.5988 33.8087 28.8135 33.678 29.0704C33.47 29.4659 33.3641 29.907 33.37 30.3538C33.37 31.3678 33.8833 32.8566 35.1026 32.8566C36.3219 32.8566 36.7968 31.6501 36.7968 30.495C36.7968 29.3399 36.3989 28.2361 35.077 28.2361Z" fill="white"/>
<path d="M48.1939 29.4169C48.1939 28.6212 48.1939 27.9923 48.1939 27.4019H49.195V28.4543C49.4177 28.0754 49.7401 27.765 50.1271 27.5567C50.5141 27.3485 50.9509 27.2506 51.3897 27.2735C51.7667 27.3003 52.1342 27.4035 52.47 27.5768C52.8058 27.7502 53.1027 27.99 53.3429 28.2818C53.583 28.5735 53.7613 28.9111 53.8668 29.274C53.9723 29.6368 54.0029 30.0173 53.9567 30.3924C54.0107 30.7981 53.979 31.2107 53.8637 31.6035C53.7483 31.9962 53.5518 32.3604 53.2869 32.6725C53.022 32.9846 52.6946 33.2376 52.3258 33.4152C51.957 33.5928 51.555 33.6911 51.1459 33.7037C50.7732 33.7201 50.4026 33.6402 50.0699 33.4715C49.7371 33.3029 49.4535 33.0513 49.2464 32.7411V35H48.1426L48.1939 29.4169ZM49.2977 31.0598C49.2775 31.2131 49.2775 31.3685 49.2977 31.5218C49.3969 31.8914 49.6156 32.2177 49.9198 32.4499C50.2239 32.682 50.5964 32.807 50.979 32.8053C52.1598 32.8053 52.8529 31.8427 52.8529 30.418C52.8529 28.9934 52.1983 28.1335 51.0175 28.1335C50.6296 28.1524 50.2587 28.2984 49.9618 28.5488C49.665 28.7993 49.4587 29.1404 49.3747 29.5196C49.3299 29.6654 49.3041 29.8164 49.2977 29.9688V31.0598Z" fill="white"/>
<path d="M65.3281 27.4018V29.9687C65.3281 30.9313 65.3281 31.5602 65.2511 32.4458C65.6361 31.6886 65.8415 31.265 66.265 30.5463L68.1902 27.3633H69.4737V33.5239H68.4084V30.957C68.4084 29.9559 68.4084 29.4297 68.4854 28.3901C68.0747 29.1986 67.818 29.6735 67.4587 30.3152C66.8683 31.265 66.1752 32.4586 65.5335 33.5367H64.25V27.3761L65.3281 27.4018Z" fill="white"/>
<path d="M81.3202 27.4019V30.0715H81.5897L83.9 27.4019H85.2604L82.5908 30.1742C83.5791 30.2897 84.1823 30.9571 84.6701 32.0609C84.8551 32.5752 85.0738 33.0769 85.3246 33.5625H84.1567C83.9312 33.1503 83.7381 32.7212 83.5791 32.2791C83.4593 31.8366 83.1913 31.4487 82.8199 31.18C82.4485 30.9114 81.9961 30.7784 81.5384 30.8031H81.3202V33.5112H80.2036V27.3506L81.3202 27.4019Z" fill="white"/>
<path d="M99.6224 32.0866C99.6163 32.5801 99.6463 33.0734 99.7122 33.5626H98.6983L98.6084 32.7797C98.3901 33.0726 98.105 33.3093 97.7769 33.47C97.4488 33.6307 97.087 33.7109 96.7217 33.7038C96.4792 33.7215 96.2356 33.6888 96.0063 33.6076C95.7771 33.5264 95.5672 33.3985 95.3898 33.2321C95.2125 33.0656 95.0717 32.8642 94.9762 32.6405C94.8807 32.4168 94.8326 32.1758 94.835 31.9326C94.835 30.4438 96.1185 29.6352 98.5442 29.6352V29.5197C98.5641 29.3305 98.5417 29.1393 98.4787 28.9598C98.4156 28.7804 98.3134 28.6172 98.1795 28.4821C98.0456 28.347 97.8834 28.2433 97.7045 28.1786C97.5256 28.1139 97.3346 28.0897 97.1453 28.1079C96.5729 28.1025 96.0113 28.263 95.5281 28.5699L95.2714 27.8127C95.891 27.4531 96.5958 27.2669 97.3121 27.2736C99.1988 27.2736 99.6609 28.5571 99.6609 29.8405L99.6224 32.0866ZM98.5442 30.4181C97.2608 30.4181 95.9773 30.6106 95.9773 31.8042C95.9661 31.9448 95.9851 32.0861 96.0331 32.2187C96.081 32.3513 96.1567 32.4721 96.2552 32.573C96.3537 32.6739 96.4726 32.7525 96.604 32.8037C96.7354 32.8548 96.8762 32.8773 97.0169 32.8695C97.3456 32.8807 97.6693 32.7874 97.9414 32.6028C98.2136 32.4183 98.4202 32.1522 98.5314 31.8427C98.5483 31.7235 98.5483 31.6026 98.5314 31.4834L98.5442 30.4181Z" fill="white"/>
<path d="M121.929 27.4019H123.302L124.406 30.5078C124.573 30.9699 124.83 31.7143 124.971 32.202C125.112 31.7271 125.459 30.7645 125.715 30.0843L126.691 27.4019H128.09L128.526 33.5625H127.461L127.32 30.6233C127.32 29.9431 127.243 29.173 127.217 28.4158C127.05 28.9805 126.87 29.4554 126.524 30.418L125.343 33.524H124.496L123.405 30.4693C123.2 29.8918 122.93 29.0062 122.776 28.4286C122.776 29.1602 122.776 29.9688 122.686 30.649L122.519 33.5625H121.493L121.929 27.4019Z" fill="white"/>
<path d="M139.461 30.6875C139.436 30.9731 139.473 31.2607 139.571 31.5303C139.668 31.8 139.823 32.0452 140.024 32.2492C140.226 32.4531 140.469 32.6107 140.737 32.7112C141.006 32.8116 141.293 32.8525 141.579 32.8309C142.164 32.8505 142.747 32.741 143.286 32.51L143.491 33.3058C142.838 33.5833 142.134 33.719 141.425 33.7037C141.013 33.7273 140.601 33.6621 140.217 33.5124C139.833 33.3628 139.485 33.1322 139.198 32.8364C138.91 32.5406 138.69 32.1864 138.552 31.7979C138.413 31.4094 138.36 30.9957 138.396 30.5848C138.349 30.1742 138.389 29.7584 138.512 29.3638C138.635 28.9693 138.839 28.6047 139.11 28.2932C139.382 27.9817 139.716 27.7302 140.09 27.5547C140.464 27.3791 140.87 27.2834 141.284 27.2735C141.649 27.2706 142.012 27.346 142.346 27.4946C142.68 27.6432 142.979 27.8615 143.222 28.135C143.465 28.4085 143.647 28.7307 143.756 29.0802C143.864 29.4297 143.896 29.7983 143.851 30.1613C143.867 30.3363 143.867 30.5125 143.851 30.6875H139.461ZM142.747 29.8789C142.778 29.6545 142.761 29.4261 142.696 29.2089C142.632 28.9917 142.522 28.7907 142.374 28.6194C142.226 28.4481 142.042 28.3104 141.837 28.2155C141.631 28.1206 141.407 28.0708 141.181 28.0693C140.719 28.0984 140.285 28.301 139.966 28.6366C139.647 28.9722 139.467 29.416 139.461 29.8789H142.747Z" fill="white"/>
<path d="M158.79 25.3097C158.371 25.4381 157.941 25.5326 157.507 25.5921C157.078 25.6187 156.66 25.7353 156.28 25.9343C155.899 26.1334 155.565 26.4104 155.299 26.7472C154.908 27.3612 154.674 28.0621 154.619 28.7879C154.804 28.3718 155.107 28.0189 155.49 27.7727C155.873 27.5264 156.32 27.3975 156.775 27.4018C158.29 27.4018 159.342 28.4799 159.342 30.4436C159.342 32.4073 158.302 33.7164 156.493 33.7164C154.324 33.7164 153.618 31.6244 153.618 29.5708C153.545 28.3587 153.879 27.157 154.568 26.1568C154.877 25.7386 155.274 25.3924 155.731 25.1421C156.187 24.8917 156.692 24.7431 157.211 24.7065C157.727 24.6288 158.238 24.5174 158.739 24.3728L158.79 25.3097ZM156.583 28.236C156.294 28.2289 156.01 28.3035 155.763 28.4511C155.515 28.5987 155.314 28.8134 155.184 29.0703C154.976 29.4658 154.87 29.9069 154.876 30.3537C154.876 31.3677 155.389 32.8565 156.608 32.8565C157.828 32.8565 158.302 31.65 158.302 30.4949C158.302 29.3398 157.866 28.236 156.583 28.236Z" fill="white"/>
<path d="M174.397 27.4019V33.5625H173.267V28.2361H171.15V29.8148C171.15 31.5474 170.983 32.7026 170.187 33.2288C169.824 33.5166 169.365 33.6544 168.904 33.6138L168.788 32.7411C169.011 32.7075 169.223 32.6193 169.404 32.4844C169.982 32.0608 170.046 31.2009 170.046 29.8276V27.4019H174.397Z" fill="white"/>
<path d="M186.32 25.6693C186.324 25.7624 186.308 25.8553 186.274 25.9419C186.24 26.0286 186.187 26.1071 186.121 26.1723C186.054 26.2376 185.975 26.2883 185.888 26.321C185.801 26.3537 185.707 26.3678 185.614 26.3624C185.523 26.3642 185.433 26.3474 185.349 26.313C185.265 26.2787 185.188 26.2275 185.125 26.1626C185.061 26.0977 185.011 26.0205 184.978 25.9356C184.946 25.8508 184.931 25.7602 184.934 25.6693C184.93 25.5756 184.946 25.4822 184.98 25.395C185.015 25.3077 185.067 25.2284 185.133 25.1621C185.199 25.0958 185.278 25.044 185.366 25.0098C185.453 24.9756 185.546 24.9598 185.64 24.9634C185.732 24.9615 185.824 24.9786 185.909 25.0137C185.994 25.0489 186.071 25.1012 186.135 25.1675C186.198 25.2338 186.248 25.3126 186.28 25.399C186.312 25.4853 186.326 25.5774 186.32 25.6693ZM185.037 33.5626V27.402H186.153V33.5626H185.037Z" fill="white"/>
<path d="M196.87 27.4788C197.52 27.3838 198.177 27.3366 198.834 27.3377C199.873 27.3377 201.58 27.5173 201.58 28.8778C201.565 29.2247 201.428 29.5552 201.193 29.811C200.959 30.0669 200.641 30.2318 200.297 30.2768C201.195 30.4051 201.863 30.9057 201.863 31.7913C201.863 33.4084 199.822 33.6138 198.616 33.6138C197.923 33.6138 197.204 33.6138 196.87 33.5368V27.4788ZM197.935 32.8437C198.256 32.8437 198.487 32.8437 198.834 32.8437C199.591 32.8437 200.72 32.6769 200.72 31.7784C200.72 30.88 199.809 30.7003 198.757 30.7003H197.935V32.8437ZM197.935 30.0073H198.77C199.591 30.0073 200.451 29.7634 200.451 29.019C200.451 28.2746 199.912 28.1206 198.795 28.1206C198.509 28.1046 198.222 28.1046 197.935 28.1206V30.0073Z" fill="white"/>
</g>
<defs>
<clipPath id="clip0">
<rect width="202.017" height="35" fill="white"/>
</clipPath>
</defs>
</svg>
