<svg width="174" height="30" viewBox="0 0 174 30" fill="none" xmlns="http://www.w3.org/2000/svg">
<g clip-path="url(#clip0)">
<path fill-rule="evenodd" clip-rule="evenodd" d="M144.816 0C146.659 0 148.461 0.543906 149.994 1.56294C151.526 2.58197 152.72 4.03036 153.426 5.72495C154.131 7.41954 154.316 9.28422 153.956 11.0832C153.597 12.8821 152.709 14.5346 151.406 15.8316C150.102 17.1286 148.442 18.0118 146.634 18.3697C144.826 18.7275 142.953 18.5438 141.25 17.8419C139.547 17.14 138.092 15.9513 137.068 14.4262C136.044 12.9012 135.497 11.1081 135.497 9.27393C135.503 6.81612 136.487 4.46063 138.233 2.72269C139.979 0.984748 142.346 0.00581046 144.816 0ZM144.816 4.19142C145.826 4.19142 146.814 4.4895 147.654 5.04798C148.493 5.60645 149.148 6.40023 149.535 7.32894C149.921 8.25764 150.022 9.27957 149.825 10.2655C149.628 11.2514 149.142 12.157 148.427 12.8678C147.713 13.5786 146.803 14.0627 145.813 14.2588C144.822 14.4549 143.795 14.3542 142.862 13.9696C141.928 13.5849 141.131 12.9334 140.57 12.0976C140.008 11.2618 139.709 10.2792 139.709 9.27393C139.723 7.9345 140.268 6.65469 141.223 5.71164C142.179 4.7686 143.47 4.23824 144.816 4.23542V4.19142Z" fill="#06357A"/>
<path fill-rule="evenodd" clip-rule="evenodd" d="M132.114 14.7085H134.513L134.413 18.5919H114.294L114.78 14.7085H116.538C117.163 13.8232 117.672 12.862 118.053 11.8482C118.448 10.7805 118.73 9.67429 118.893 8.54787C119.073 7.22045 119.169 5.88297 119.18 4.54347V0.440063H132.081V14.7415L132.114 14.7085ZM127.924 3.87241H123.182V5.97362C123.175 7.10241 123.105 8.22996 122.972 9.35096C122.862 10.3045 122.654 11.2445 122.353 12.1562C122.056 13.056 121.643 13.9138 121.126 14.7085H127.957V3.87241H127.924Z" fill="#06357A"/>
<path fill-rule="evenodd" clip-rule="evenodd" d="M79.1294 0.429038H87.3983C88.7277 0.374779 90.0508 0.638869 91.2564 1.19912C92.1666 1.64736 92.8987 2.38752 93.3346 3.30033C93.7547 4.19562 93.9699 5.17253 93.9647 6.16061C93.9647 10.121 91.7538 12.1012 87.3319 12.1012H83.297V18.1848H79.1294V0.429038ZM83.3081 3.89438V8.62486H86.6244C87.3976 8.66915 88.1667 8.48547 88.8354 8.0968C89.0998 7.85826 89.3023 7.55956 89.4255 7.22622C89.5487 6.89288 89.589 6.53481 89.5429 6.18261C89.5844 5.85138 89.5424 5.51508 89.4209 5.20399C89.2993 4.89289 89.1019 4.61675 88.8464 4.40044C88.1708 4.03205 87.4046 3.86048 86.6355 3.90539L83.3081 3.89438Z" fill="#06357A"/>
<path fill-rule="evenodd" clip-rule="evenodd" d="M63.3875 0.0550184C65.2945 0.0519941 67.1557 0.636081 68.7159 1.72719V0.484061H72.8393V18.1958H68.7159V16.8977C67.5183 17.7349 66.1392 18.2792 64.6905 18.4865C63.2419 18.6938 61.7645 18.5583 60.3784 18.0909C58.9922 17.6234 57.7364 16.8373 56.7128 15.7963C55.6892 14.7553 54.9267 13.4888 54.4872 12.0995C54.0477 10.7103 53.9436 9.2375 54.1833 7.80071C54.423 6.36391 54.9998 5.00362 55.8669 3.83027C56.734 2.65691 57.8668 1.70356 59.1735 1.0476C60.4803 0.391652 61.924 0.0515878 63.3875 0.0550184ZM68.7159 8.93291V9.73599C68.6116 11.0714 67.9917 12.3147 66.9862 13.2052C65.9808 14.0956 64.6678 14.564 63.3229 14.5121C61.978 14.4601 60.7055 13.8919 59.7724 12.9266C58.8393 11.9613 58.3181 10.6739 58.3181 9.33445C58.3181 7.99501 58.8393 6.70761 59.7724 5.7423C60.7055 4.77698 61.978 4.20876 63.3229 4.15683C64.6678 4.10489 65.9808 4.57327 66.9862 5.46372C67.9917 6.35417 68.6116 7.5975 68.7159 8.93291Z" fill="#06357A"/>
<path fill-rule="evenodd" clip-rule="evenodd" d="M25.0831 7.8988L31.1631 0.473053H36.0825L28.9522 8.53686L36.4915 18.1298H31.3511L25.0831 9.49396H25.0057V18.1298H20.8823V0.473053H25.0057V7.8988H25.0831Z" fill="#06357A"/>
<path fill-rule="evenodd" clip-rule="evenodd" d="M38.2271 0.473064H47.0708C48.3242 0.395841 49.5739 0.674331 50.6746 1.27614C51.3732 1.68176 51.9145 2.30949 52.2112 3.05832C52.4277 3.67365 52.5398 4.32056 52.5428 4.97251C52.5723 5.42933 52.5059 5.88724 52.3479 6.31716C52.19 6.74708 51.9439 7.13959 51.6253 7.46976C51.0606 8.00518 50.3798 8.40417 49.6354 8.63588C50.6516 8.79663 51.5871 9.28337 52.2996 10.022C52.6829 10.4416 52.9781 10.9331 53.168 11.4677C53.3578 12.0023 53.4384 12.5693 53.4051 13.1353C53.4532 13.7355 53.3748 14.3392 53.1749 14.9075C52.975 15.4758 52.6581 15.9963 52.2443 16.4357C51.5281 17.1375 50.6213 17.6155 49.6354 17.8108C48.6414 18.0048 47.6305 18.1006 46.6175 18.0968H38.2271V0.473064ZM42.3283 3.70739V7.44776H46.2085C46.7205 7.45572 47.2211 7.29737 47.6345 6.99672C47.8464 6.83789 48.015 6.6289 48.125 6.38875C48.2351 6.1486 48.2831 5.88489 48.2647 5.62158C48.2907 5.34255 48.2444 5.06155 48.1302 4.80539C48.016 4.54924 47.8378 4.3265 47.6124 4.15843C47.1396 3.853 46.584 3.6994 46.0206 3.71839L42.3283 3.70739ZM42.3283 10.6821V14.8955H46.6838C47.2343 14.8871 47.7695 14.7147 48.2204 14.4005C48.4828 14.2073 48.69 13.9495 48.8218 13.6525C48.9536 13.3554 49.0054 13.0293 48.9722 12.7063C49.0119 12.3913 48.9602 12.0716 48.823 11.785C48.6859 11.4984 48.4691 11.2569 48.1983 11.0891C47.5523 10.7896 46.8431 10.65 46.1311 10.6821H42.3283Z" fill="#06357A"/>
<path fill-rule="evenodd" clip-rule="evenodd" d="M9.30882 6.15625e-06C11.2122 -0.00218752 13.0696 0.581928 14.6261 1.67217V0.429049H18.7937V18.1408H14.6372V16.8537C13.439 17.6876 12.0603 18.2288 10.6128 18.4336C9.1653 18.6384 7.68966 18.501 6.30546 18.0325C4.92125 17.564 3.66742 16.7776 2.64555 15.737C1.62367 14.6964 0.862505 13.4308 0.42371 12.0429C-0.0150854 10.655 -0.119163 9.18371 0.119908 7.7483C0.35898 6.31289 0.934477 4.95371 1.79977 3.78089C2.66506 2.60807 3.79582 1.65459 5.10041 0.997717C6.40501 0.340841 7.84675 -0.000960801 9.30882 6.15625e-06ZM14.6261 8.88889V9.69198C14.5218 11.0274 13.9019 12.2707 12.8964 13.1612C11.891 14.0516 10.5781 14.52 9.23313 14.4681C7.88818 14.4161 6.6157 13.8479 5.68261 12.8826C4.74951 11.9173 4.22829 10.6299 4.22829 9.29043C4.22829 7.951 4.74951 6.6636 5.68261 5.69829C6.6157 4.73297 7.88818 4.16475 9.23313 4.11281C10.5781 4.06087 11.891 4.52925 12.8964 5.4197C13.9019 6.31016 14.5218 7.55349 14.6261 8.88889Z" fill="#06357A"/>
<path fill-rule="evenodd" clip-rule="evenodd" d="M104.842 0C106.686 0 108.487 0.543906 110.02 1.56294C111.552 2.58197 112.747 4.03036 113.452 5.72495C114.158 7.41954 114.342 9.28422 113.982 11.0832C113.623 12.8821 112.735 14.5346 111.432 15.8316C110.129 17.1286 108.468 18.0118 106.661 18.3697C104.853 18.7275 102.979 18.5438 101.276 17.8419C99.5734 17.14 98.118 15.9513 97.094 14.4262C96.07 12.9012 95.5234 11.1081 95.5234 9.27393C95.5293 6.81612 96.513 4.46063 98.2594 2.72269C100.006 0.984748 102.373 0.00581046 104.842 0ZM104.842 4.19142C105.853 4.19142 106.84 4.4895 107.68 5.04798C108.52 5.60645 109.174 6.40023 109.561 7.32894C109.948 8.25764 110.049 9.27957 109.852 10.2655C109.655 11.2514 109.168 12.157 108.454 12.8678C107.74 13.5786 106.83 14.0627 105.839 14.2588C104.848 14.4549 103.821 14.3542 102.888 13.9696C101.955 13.5849 101.157 12.9334 100.596 12.0976C100.035 11.2618 99.7353 10.2792 99.7353 9.27393C99.7382 7.92686 100.277 6.63579 101.234 5.68326C102.192 4.73074 103.489 4.19433 104.842 4.19142Z" fill="#06357A"/>
<path fill-rule="evenodd" clip-rule="evenodd" d="M165.356 0C167.216 0.00605989 169.032 0.564065 170.572 1.60268C172.112 2.64129 173.305 4.11333 174 5.83058H169.136C168.442 5.08447 167.54 4.56254 166.545 4.33222C165.55 4.10191 164.508 4.17379 163.555 4.53858C162.602 4.90338 161.78 5.54432 161.196 6.3786C160.613 7.21288 160.294 8.20217 160.281 9.21864C160.268 10.2351 160.562 11.2321 161.124 12.0807C161.687 12.9293 162.492 13.5906 163.436 13.9792C164.38 14.3677 165.419 14.4656 166.419 14.2603C167.42 14.055 168.335 13.5558 169.048 12.8273H174.011C173.366 14.3764 172.31 15.7223 170.956 16.7217C169.603 17.721 168.002 18.3364 166.325 18.5023C164.648 18.6681 162.957 18.3783 161.433 17.6637C159.908 16.949 158.607 15.8363 157.667 14.4439C156.727 13.0516 156.185 11.4317 156.097 9.75683C156.009 8.08194 156.38 6.4147 157.169 4.93264C157.957 3.45057 159.135 2.20914 160.577 1.34053C162.019 0.471917 163.67 0.00863275 165.356 0V0Z" fill="#06357A"/>
<path d="M3.69225 22.4423V23.3884C4.42522 23.3884 5.12817 23.6781 5.64646 24.1939C6.16474 24.7097 6.45591 25.4092 6.45591 26.1386C6.45591 26.8681 6.16474 27.5676 5.64646 28.0834C5.12817 28.5991 4.42522 28.8889 3.69225 28.8889V29.989H2.78577V28.8889C2.42943 28.8937 2.07585 28.8261 1.74666 28.6903C1.41747 28.5544 1.11959 28.3532 0.871247 28.0988C0.622901 27.8445 0.429309 27.5424 0.302314 27.211C0.175319 26.8796 0.11759 26.526 0.13266 26.1716C0.116213 25.8134 0.172957 25.4556 0.299461 25.1198C0.425964 24.7841 0.619597 24.4773 0.868646 24.2182C1.11769 23.959 1.41698 23.7528 1.7484 23.6121C2.07983 23.4714 2.43649 23.399 2.79683 23.3994V22.4423H3.69225ZM2.80788 24.0484C2.30858 24.117 1.8544 24.3726 1.53802 24.7631C1.22165 25.1536 1.06694 25.6495 1.10547 26.1496C1.0733 26.6466 1.23257 27.137 1.55087 27.5212C1.86918 27.9054 2.32262 28.1545 2.81894 28.2178L2.80788 24.0484ZM3.6812 28.2178C4.1812 28.1443 4.63507 27.8862 4.95255 27.4948C5.27003 27.1035 5.42787 26.6075 5.39467 26.1056C5.42955 25.6081 5.27127 25.1162 4.95246 24.7314C4.63365 24.3466 4.17862 24.0982 3.6812 24.0374V28.2178Z" fill="#231F20"/>
<path d="M18.9039 27.5028C18.8997 27.9258 18.9256 28.3485 18.9813 28.7679H18.119L18.0416 28.0968C17.8536 28.3479 17.6081 28.5508 17.3254 28.6885C17.0428 28.8263 16.7313 28.895 16.4166 28.8889C16.2077 28.9041 15.9979 28.8761 15.8004 28.8065C15.603 28.7369 15.4221 28.6273 15.2694 28.4846C15.1167 28.3419 14.9954 28.1693 14.9131 27.9775C14.8309 27.7858 14.7895 27.5792 14.7916 27.3707C14.7916 26.0946 15.897 25.4015 17.9864 25.4015V25.3025C18.0035 25.1404 17.9842 24.9765 17.9299 24.8227C17.8755 24.6689 17.7875 24.529 17.6722 24.4132C17.5569 24.2974 17.4171 24.2085 17.2631 24.153C17.109 24.0976 16.9445 24.0768 16.7814 24.0924C16.2884 24.0879 15.8047 24.2254 15.3885 24.4885L15.1674 23.8394C15.7008 23.5307 16.3081 23.3711 16.9251 23.3773C18.5502 23.3773 18.9481 24.4775 18.9481 25.5776L18.9039 27.5028ZM17.9753 26.0726C16.8699 26.0726 15.7644 26.2376 15.7644 27.2607C15.7547 27.3812 15.7711 27.5023 15.8124 27.616C15.8537 27.7296 15.9189 27.8332 16.0037 27.9197C16.0885 28.0061 16.191 28.0736 16.3041 28.1174C16.4173 28.1612 16.5386 28.1805 16.6598 28.1738C16.9429 28.1835 17.2217 28.1034 17.4561 27.9453C17.6905 27.7871 17.8685 27.559 17.9643 27.2937C17.9788 27.1916 17.9788 27.0879 17.9643 26.9857L17.9753 26.0726Z" fill="#231F20"/>
<path d="M32.0588 21.6942C31.6974 21.8041 31.3278 21.8851 30.9534 21.9362C30.5843 21.959 30.2242 22.059 29.8966 22.2296C29.569 22.4002 29.2812 22.6376 29.052 22.9263C28.7143 23.4522 28.513 24.0532 28.4661 24.6755C28.6267 24.3197 28.8877 24.018 29.2174 23.8071C29.5471 23.5961 29.9313 23.4851 30.3233 23.4874C31.6277 23.4874 32.5342 24.4114 32.5342 26.0946C32.5342 27.7778 31.6388 28.8999 30.0801 28.8999C28.2118 28.8999 27.6038 27.1067 27.6038 25.3465C27.5425 24.3078 27.8303 23.2783 28.4219 22.4203C28.6888 22.0618 29.0306 21.765 29.4237 21.5505C29.8168 21.3359 30.2519 21.2085 30.6991 21.1771C31.1879 21.1206 31.6719 21.0287 32.1473 20.9021L32.0588 21.6942ZM30.2127 24.2024C29.9645 24.1963 29.7197 24.2602 29.5065 24.3868C29.2932 24.5133 29.1203 24.6973 29.0078 24.9175C28.8286 25.2565 28.7374 25.6346 28.7424 26.0176C28.7424 26.8867 29.1846 28.1628 30.2348 28.1628C31.285 28.1628 31.694 27.1287 31.694 26.1386C31.694 25.1485 31.3513 24.2024 30.2127 24.2024Z" fill="#231F20"/>
<path d="M41.5105 25.2145C41.5105 24.5325 41.5105 23.9934 41.5105 23.4874H42.3728V24.3895C42.5646 24.0647 42.8423 23.7986 43.1756 23.6201C43.5089 23.4416 43.8851 23.3577 44.2631 23.3774C44.5878 23.4003 44.9044 23.4887 45.1936 23.6373C45.4828 23.7859 45.7386 23.9915 45.9454 24.2415C46.1522 24.4916 46.3058 24.781 46.3967 25.092C46.4875 25.403 46.5139 25.7292 46.4741 26.0506C46.5206 26.3984 46.4933 26.7521 46.394 27.0887C46.2946 27.4254 46.1254 27.7375 45.8972 28.005C45.669 28.2725 45.387 28.4894 45.0694 28.6416C44.7517 28.7939 44.4055 28.8781 44.0531 28.8889C43.7321 28.903 43.4129 28.8345 43.1263 28.6899C42.8397 28.5454 42.5954 28.3298 42.417 28.0638V30H41.4663L41.5105 25.2145ZM42.4612 26.6227C42.4439 26.7541 42.4439 26.8873 42.4612 27.0187C42.5467 27.3355 42.7351 27.6152 42.997 27.8142C43.259 28.0132 43.5798 28.1203 43.9094 28.1188C44.9264 28.1188 45.5234 27.2938 45.5234 26.0726C45.5234 24.8515 44.9596 24.1144 43.9425 24.1144C43.6084 24.1307 43.2889 24.2558 43.0332 24.4705C42.7776 24.6851 42.5999 24.9775 42.5276 25.3025C42.489 25.4275 42.4667 25.5569 42.4612 25.6876V26.6227Z" fill="#231F20"/>
<path d="M56.2684 23.4873V25.6876C56.2684 26.5127 56.2684 27.0517 56.2021 27.8108C56.5337 27.1617 56.7106 26.7987 57.0754 26.1826L58.7336 23.4543H59.8391V28.7349H58.9215V26.5347C58.9215 25.6766 58.9215 25.2255 58.9879 24.3344C58.6341 25.0275 58.413 25.4345 58.1035 25.9846C57.595 26.7987 56.998 27.8218 56.4453 28.7459H55.3398V23.4653L56.2684 23.4873Z" fill="#231F20"/>
<path d="M70.0423 23.4874V25.7756H70.2745L72.2643 23.4874H73.4361L71.1367 25.8636C71.9879 25.9626 72.5075 26.5347 72.9276 27.4808C73.087 27.9216 73.2753 28.3516 73.4914 28.7679H72.4854C72.2912 28.4146 72.1249 28.0467 71.9879 27.6678C71.8847 27.2885 71.6539 26.956 71.334 26.7258C71.0141 26.4955 70.6245 26.3814 70.2302 26.4027H70.0423V28.7239H69.0806V23.4434L70.0423 23.4874Z" fill="#231F20"/>
<path d="M85.8066 27.5028C85.8013 27.9258 85.8272 28.3486 85.8839 28.7679H85.0106L84.9332 28.0968C84.7452 28.3479 84.4997 28.5508 84.217 28.6885C83.9344 28.8263 83.6229 28.895 83.3082 28.8889C83.0993 28.9041 82.8895 28.8761 82.692 28.8065C82.4946 28.7369 82.3138 28.6273 82.161 28.4846C82.0083 28.3419 81.887 28.1693 81.8047 27.9775C81.7225 27.7858 81.6811 27.5792 81.6832 27.3707C81.6832 26.0946 82.7886 25.4015 84.878 25.4015V25.3025C84.8951 25.1404 84.8758 24.9765 84.8215 24.8227C84.7671 24.6689 84.6791 24.529 84.5638 24.4132C84.4485 24.2974 84.3087 24.2085 84.1547 24.153C84.0006 24.0976 83.8361 24.0768 83.673 24.0924C83.18 24.0879 82.6963 24.2254 82.2801 24.4885L82.059 23.8394C82.5927 23.5312 83.1998 23.3716 83.8167 23.3773C85.4418 23.3773 85.8397 24.4775 85.8397 25.5776L85.8066 27.5028ZM84.878 26.0726C83.7725 26.0726 82.667 26.2376 82.667 27.2607C82.6574 27.3812 82.6738 27.5023 82.715 27.616C82.7563 27.7296 82.8216 27.8332 82.9064 27.9197C82.9912 28.0061 83.0936 28.0736 83.2068 28.1174C83.3199 28.1612 83.4412 28.1805 83.5625 28.1738C83.8455 28.1834 84.1243 28.1034 84.3588 27.9453C84.5932 27.7871 84.7711 27.559 84.8669 27.2937C84.8814 27.1916 84.8814 27.0879 84.8669 26.9857L84.878 26.0726Z" fill="#231F20"/>
<path d="M105.019 23.4874H106.202L107.153 26.1496C107.297 26.5457 107.518 27.1837 107.639 27.6018C107.761 27.1947 108.059 26.3697 108.281 25.7866L109.121 23.4874H110.326L110.701 28.7679H109.784L109.662 26.2486C109.662 25.6656 109.596 25.0055 109.574 24.3565C109.43 24.8405 109.275 25.2475 108.977 26.0726L107.96 28.7349H107.23L106.291 26.1166C106.114 25.6216 105.882 24.8625 105.749 24.3675C105.749 24.9945 105.749 25.6876 105.672 26.2706L105.528 28.7679H104.644L105.019 23.4874Z" fill="#231F20"/>
<path d="M120.12 26.3036C120.098 26.5484 120.13 26.7949 120.214 27.026C120.298 27.2572 120.431 27.4674 120.605 27.6422C120.778 27.817 120.988 27.9521 121.219 28.0382C121.45 28.1243 121.698 28.1593 121.944 28.1408C122.448 28.1577 122.95 28.0638 123.414 27.8658L123.591 28.5479C123.029 28.7858 122.422 28.902 121.811 28.8889C121.457 28.9092 121.102 28.8533 120.771 28.725C120.44 28.5967 120.14 28.3991 119.893 28.1455C119.645 27.892 119.456 27.5884 119.336 27.2554C119.217 26.9224 119.172 26.5678 119.202 26.2156C119.162 25.8636 119.196 25.5072 119.302 25.169C119.408 24.8309 119.584 24.5184 119.818 24.2514C120.052 23.9844 120.339 23.7688 120.661 23.6183C120.984 23.4679 121.334 23.3858 121.69 23.3774C122.005 23.3749 122.317 23.4395 122.605 23.5669C122.893 23.6942 123.15 23.8814 123.359 24.1158C123.569 24.3502 123.725 24.6264 123.819 24.926C123.912 25.2255 123.94 25.5414 123.9 25.8526C123.915 26.0026 123.915 26.1536 123.9 26.3036H120.12ZM122.95 25.6106C122.977 25.4182 122.962 25.2224 122.906 25.0362C122.851 24.8501 122.756 24.6778 122.629 24.531C122.501 24.3841 122.343 24.2661 122.166 24.1848C121.989 24.1035 121.796 24.0607 121.601 24.0594C121.203 24.0844 120.829 24.2581 120.555 24.5457C120.28 24.8334 120.125 25.2138 120.12 25.6106H122.95Z" fill="#231F20"/>
<path d="M136.768 21.6942C136.407 21.8042 136.037 21.8852 135.663 21.9362C135.294 21.959 134.934 22.059 134.606 22.2296C134.278 22.4001 133.991 22.6376 133.761 22.9263C133.425 23.4526 133.223 24.0533 133.175 24.6755C133.335 24.3188 133.596 24.0163 133.926 23.8052C134.256 23.5942 134.64 23.4837 135.033 23.4873C136.337 23.4873 137.244 24.4114 137.244 26.0946C137.244 27.7778 136.348 28.8999 134.789 28.8999C132.921 28.8999 132.313 27.1067 132.313 25.3465C132.25 24.3076 132.538 23.2775 133.131 22.4202C133.398 22.0618 133.74 21.765 134.133 21.5504C134.526 21.3359 134.961 21.2085 135.408 21.1771C135.853 21.1105 136.292 21.015 136.724 20.8911L136.768 21.6942ZM134.867 24.2024C134.619 24.1963 134.374 24.2602 134.161 24.3868C133.947 24.5133 133.774 24.6973 133.662 24.9175C133.483 25.2565 133.392 25.6346 133.397 26.0176C133.397 26.8867 133.839 28.1628 134.889 28.1628C135.939 28.1628 136.348 27.1287 136.348 26.1386C136.348 25.1485 135.972 24.2024 134.867 24.2024Z" fill="#231F20"/>
<path d="M150.211 23.4874V28.7679H149.238V24.2024H147.414V25.5556C147.414 27.0407 147.27 28.0308 146.585 28.4819C146.272 28.7286 145.877 28.8467 145.479 28.8119L145.38 28.0638C145.572 28.035 145.755 27.9594 145.911 27.8438C146.408 27.4808 146.463 26.7437 146.463 25.5666V23.4874H150.211Z" fill="#231F20"/>
<path d="M160.48 22.0022C160.484 22.082 160.47 22.1616 160.441 22.2359C160.411 22.3102 160.366 22.3774 160.309 22.4334C160.252 22.4894 160.183 22.5328 160.108 22.5608C160.033 22.5889 159.953 22.601 159.872 22.5963C159.794 22.5978 159.716 22.5835 159.644 22.554C159.571 22.5246 159.506 22.4807 159.451 22.425C159.396 22.3694 159.353 22.3032 159.325 22.2305C159.297 22.1578 159.284 22.0801 159.287 22.0022C159.283 21.9219 159.297 21.8419 159.327 21.7671C159.356 21.6923 159.401 21.6243 159.458 21.5675C159.515 21.5107 159.583 21.4662 159.658 21.4369C159.733 21.4076 159.814 21.3941 159.895 21.3972C159.974 21.3955 160.053 21.4102 160.126 21.4403C160.199 21.4704 160.265 21.5153 160.321 21.5721C160.376 21.629 160.418 21.6965 160.446 21.7705C160.473 21.8445 160.485 21.9234 160.48 22.0022ZM159.375 28.7679V23.4874H160.337V28.7679H159.375Z" fill="#231F20"/>
<path d="M169.567 23.5534C170.127 23.4719 170.693 23.4314 171.259 23.4324C172.154 23.4324 173.624 23.5864 173.624 24.7525C173.611 25.0498 173.493 25.3331 173.291 25.5524C173.089 25.7717 172.816 25.9131 172.519 25.9516C173.293 26.0616 173.868 26.4907 173.868 27.2497C173.868 28.6359 172.11 28.8119 171.071 28.8119C170.474 28.8119 169.855 28.8119 169.567 28.7459V23.5534ZM170.485 28.1518C170.761 28.1518 170.96 28.1518 171.259 28.1518C171.911 28.1518 172.884 28.0088 172.884 27.2387C172.884 26.4687 172.099 26.3146 171.192 26.3146H170.485V28.1518ZM170.485 25.7206H171.203C171.911 25.7206 172.652 25.5116 172.652 24.8735C172.652 24.2354 172.187 24.1034 171.226 24.1034C170.979 24.0897 170.732 24.0897 170.485 24.1034V25.7206Z" fill="#231F20"/>
</g>
<defs>
<clipPath id="clip0">
<rect width="174" height="30" fill="white"/>
</clipPath>
</defs>
</svg>
