<svg width="60" height="60" viewBox="0 0 60 60" fill="none" xmlns="http://www.w3.org/2000/svg">
<path d="M56.6797 16.2689C54.5788 12.1942 51.5149 8.59617 47.8198 5.8636C47.2775 5.4627 46.5132 5.57727 46.1121 6.11939C45.711 6.66151 45.8257 7.42605 46.3679 7.82715C49.7636 10.3383 52.5788 13.6443 54.5094 17.3881C56.5322 21.3109 57.5578 25.5541 57.5578 30.0001C57.5578 45.1955 45.1953 57.558 29.9999 57.558C14.8045 57.558 2.44198 45.1955 2.44198 29.9999C2.44198 14.8043 14.8045 2.44198 29.9999 2.44198C30.6741 2.44198 31.2209 1.89518 31.2209 1.22099C31.2209 0.546799 30.6741 0 29.9999 0C13.4579 0 0 13.4579 0 29.9999C0 46.5419 13.4579 59.9998 29.9999 59.9998C46.5419 59.9998 59.9998 46.5419 59.9998 29.9999C59.9998 25.2291 58.8519 20.4811 56.6797 16.2689Z" fill="white"/>
<path d="M22.3237 16.07C21.9419 16.2872 21.7061 16.6925 21.7061 17.1315V43.9269C21.7061 44.6013 22.2529 45.1479 22.927 45.1479C23.6012 45.1479 24.148 44.6013 24.148 43.9269V19.2794L42.2254 30.041L28.9321 38.6056C28.3653 38.9709 28.2017 39.7265 28.567 40.2933C28.9325 40.8602 29.6879 41.0238 30.2548 40.6583L45.2048 31.0261C45.5601 30.7972 45.7717 30.4008 45.7642 29.9781C45.7567 29.5555 45.5312 29.1668 45.168 28.9505L23.5516 16.0823C23.1739 15.8578 22.7054 15.8529 22.3237 16.07Z" fill="white"/>
</svg>
