<svg width="347" height="60" viewBox="0 0 347 60" fill="none" xmlns="http://www.w3.org/2000/svg">
<g clip-path="url(#clip0)">
<path fill-rule="evenodd" clip-rule="evenodd" d="M288.23 0C291.898 0 295.484 1.08781 298.534 3.12588C301.584 5.16394 303.962 8.06072 305.366 11.4499C306.769 14.8391 307.137 18.5684 306.421 22.1664C305.705 25.7643 303.939 29.0692 301.345 31.6632C298.751 34.2571 295.446 36.0236 291.848 36.7393C288.25 37.455 284.521 37.0877 281.132 35.6838C277.742 34.28 274.846 31.9027 272.808 28.8525C270.769 25.8023 269.682 22.2163 269.682 18.5479C269.693 13.6322 271.651 8.92126 275.127 5.44538C278.603 1.9695 283.314 0.0116209 288.23 0ZM288.23 8.38284C290.24 8.38284 292.205 8.97901 293.877 10.096C295.549 11.2129 296.851 12.8005 297.621 14.6579C298.39 16.5153 298.591 18.5591 298.199 20.531C297.807 22.5028 296.839 24.314 295.417 25.7356C293.996 27.1572 292.184 28.1253 290.213 28.5176C288.241 28.9098 286.197 28.7085 284.34 27.9391C282.482 27.1697 280.895 25.8669 279.778 24.1952C278.661 22.5236 278.064 20.5583 278.064 18.5479C278.093 15.869 279.176 13.3094 281.079 11.4233C282.982 9.53719 285.551 8.47648 288.23 8.47085V8.38284Z" fill="white"/>
<path fill-rule="evenodd" clip-rule="evenodd" d="M262.949 29.417H267.723L267.525 37.1837H227.481L228.45 29.417H231.948C233.192 27.6464 234.205 25.7239 234.962 23.6964C235.75 21.561 236.31 19.3486 236.634 17.0957C236.994 14.4409 237.185 11.7659 237.206 9.08692V0.880096H262.883V29.483L262.949 29.417ZM254.61 7.74478H245.171V11.9472C245.158 14.2048 245.018 16.4599 244.753 18.7019C244.534 20.609 244.121 22.4889 243.521 24.3124C242.93 26.112 242.109 27.8277 241.079 29.417H254.676V7.74478H254.61Z" fill="white"/>
<path fill-rule="evenodd" clip-rule="evenodd" d="M157.492 0.858092H173.95C176.596 0.749573 179.229 1.27775 181.629 2.39825C183.44 3.29474 184.897 4.77506 185.765 6.60067C186.601 8.39125 187.029 10.3451 187.019 12.3212C187.019 20.242 182.619 24.2024 173.818 24.2024H165.787V36.3696H157.492V0.858092ZM165.809 7.78878V17.2497H172.41C173.948 17.3383 175.479 16.9709 176.81 16.1936C177.336 15.7165 177.739 15.1191 177.985 14.4525C178.23 13.7858 178.31 13.0696 178.218 12.3652C178.301 11.7028 178.217 11.0302 177.975 10.408C177.733 9.78579 177.341 9.23353 176.832 8.80089C175.487 8.06411 173.962 7.72097 172.432 7.81079L165.809 7.78878Z" fill="white"/>
<path fill-rule="evenodd" clip-rule="evenodd" d="M126.161 0.110021C129.957 0.103973 133.661 1.27215 136.766 3.45436V0.968107H144.973V36.3917H136.766V33.7954C134.383 35.4697 131.638 36.5584 128.755 36.973C125.871 37.3877 122.931 37.1165 120.172 36.1817C117.413 35.2468 114.914 33.6746 112.876 31.5926C110.839 29.5106 109.322 26.9776 108.447 24.1991C107.572 21.4206 107.365 18.475 107.842 15.6014C108.319 12.7278 109.467 10.0072 111.193 7.66052C112.919 5.3138 115.173 3.4071 117.774 2.09519C120.375 0.783289 123.248 0.10316 126.161 0.110021ZM136.766 17.8658V19.472C136.559 22.1428 135.325 24.6294 133.324 26.4103C131.323 28.1912 128.71 29.128 126.033 29.0241C123.356 28.9202 120.823 27.7838 118.966 25.8532C117.109 23.9225 116.071 21.3477 116.071 18.6689C116.071 15.99 117.109 13.4152 118.966 11.4846C120.823 9.55395 123.356 8.41751 126.033 8.31363C128.71 8.20976 131.323 9.14652 133.324 10.9274C135.325 12.7083 136.559 15.195 136.766 17.8658Z" fill="white"/>
<path fill-rule="evenodd" clip-rule="evenodd" d="M49.9233 15.7976L62.0246 0.946106H71.8155L57.6241 17.0737L72.6296 36.2596H62.3986L49.9233 18.9879H49.7693V36.2596H41.5625V0.946106H49.7693V15.7976H49.9233Z" fill="white"/>
<path fill-rule="evenodd" clip-rule="evenodd" d="M76.084 0.946098H93.6857C96.1805 0.791652 98.6678 1.34863 100.858 2.55226C102.249 3.3635 103.326 4.61895 103.917 6.11662C104.348 7.34727 104.571 8.64108 104.577 9.945C104.635 10.8586 104.503 11.7745 104.189 12.6343C103.875 13.4941 103.385 14.2792 102.751 14.9395C101.627 16.0103 100.272 16.8083 98.7902 17.2717C100.813 17.5932 102.675 18.5667 104.093 20.044C104.856 20.8831 105.443 21.8661 105.821 22.9353C106.199 24.0046 106.359 25.1385 106.293 26.2706C106.389 27.4711 106.233 28.6783 105.835 29.8149C105.437 30.9516 104.806 31.9926 103.983 32.8713C102.557 34.275 100.752 35.231 98.7902 35.6216C96.8118 36.0096 94.7998 36.2012 92.7836 36.1936H76.084V0.946098ZM84.2468 7.41474V14.8955H91.9696C92.9886 14.9114 93.985 14.5947 94.8078 13.9934C95.2295 13.6757 95.565 13.2578 95.784 12.7775C96.0031 12.2972 96.0986 11.7697 96.062 11.2431C96.1138 10.6851 96.0216 10.1231 95.7944 9.61076C95.5671 9.09845 95.2123 8.65296 94.7638 8.31684C93.8228 7.70597 92.7168 7.39877 91.5955 7.43675L84.2468 7.41474ZM84.2468 21.3641V29.791H92.9157C94.0112 29.7742 95.0765 29.4293 95.974 28.8009C96.496 28.4146 96.9086 27.899 97.1709 27.3049C97.4332 26.7108 97.5364 26.0586 97.4701 25.4125C97.5492 24.7826 97.4462 24.1432 97.1733 23.57C96.9003 22.9968 96.4689 22.5138 95.93 22.1782C94.6441 21.5793 93.2326 21.3 91.8155 21.3641H84.2468Z" fill="white"/>
<path fill-rule="evenodd" clip-rule="evenodd" d="M18.5264 1.23125e-05C22.3148 -0.00437504 26.0116 1.16386 29.1095 3.34435V0.858098H37.4043V36.2816H29.1315V33.7074C26.7468 35.3751 24.0028 36.4577 21.1218 36.8673C18.2408 37.2769 15.3038 37.002 12.5488 36.065C9.79381 35.128 7.29829 33.5552 5.26444 31.4739C3.23059 29.3927 1.71563 26.8616 0.842286 24.0858C-0.0310533 21.31 -0.238201 18.3674 0.237626 15.4966C0.713454 12.6258 1.85887 9.90742 3.58108 7.56178C5.30329 5.21614 7.55384 3.30919 10.1504 1.99543C12.7469 0.681682 15.6165 -0.0019216 18.5264 1.23125e-05ZM29.1095 17.7778V19.384C28.9019 22.0548 27.6681 24.5414 25.6669 26.3223C23.6657 28.1032 21.0526 29.04 18.3758 28.9361C15.6989 28.8322 13.1663 27.6958 11.3091 25.7652C9.45198 23.8345 8.4146 21.2597 8.4146 18.5809C8.4146 15.902 9.45198 13.3272 11.3091 11.3966C13.1663 9.46595 15.6989 8.3295 18.3758 8.22563C21.0526 8.12175 23.6657 9.05851 25.6669 10.8394C27.6681 12.6203 28.9019 15.107 29.1095 17.7778Z" fill="white"/>
<path fill-rule="evenodd" clip-rule="evenodd" d="M208.669 0C212.337 0 215.923 1.08781 218.974 3.12588C222.024 5.16394 224.401 8.06072 225.805 11.4499C227.209 14.8391 227.576 18.5684 226.86 22.1664C226.145 25.7643 224.378 29.0692 221.784 31.6632C219.19 34.2571 215.885 36.0236 212.287 36.7393C208.69 37.455 204.96 37.0877 201.571 35.6838C198.182 34.28 195.285 31.9027 193.247 28.8525C191.209 25.8023 190.121 22.2163 190.121 18.5479C190.133 13.6322 192.091 8.92126 195.566 5.44538C199.042 1.9695 203.753 0.0116209 208.669 0ZM208.669 8.38284C210.679 8.38284 212.645 8.97901 214.316 10.096C215.988 11.2129 217.291 12.8005 218.06 14.6579C218.83 16.5153 219.031 18.5591 218.639 20.531C218.246 22.5028 217.278 24.314 215.857 25.7356C214.435 27.1572 212.624 28.1253 210.652 28.5176C208.68 28.9098 206.636 28.7085 204.779 27.9391C202.922 27.1697 201.334 25.8669 200.217 24.1952C199.1 22.5236 198.504 20.5583 198.504 18.5479C198.51 15.8537 199.583 13.2716 201.488 11.3665C203.393 9.46147 205.975 8.38865 208.669 8.38284Z" fill="white"/>
<path fill-rule="evenodd" clip-rule="evenodd" d="M329.11 0C332.812 0.0121198 336.427 1.12813 339.492 3.20536C342.557 5.28259 344.932 8.22665 346.315 11.6612H336.634C335.254 10.1689 333.457 9.12508 331.477 8.66444C329.496 8.20381 327.424 8.34758 325.526 9.07716C323.628 9.80675 321.993 11.0886 320.831 12.7572C319.67 14.4258 319.035 16.4043 319.009 18.4373C318.984 20.4702 319.568 22.4641 320.688 24.1614C321.807 25.8586 323.41 27.1812 325.288 27.9583C327.167 28.7354 329.236 28.9313 331.227 28.5206C333.218 28.1099 335.04 27.1116 336.458 25.6546H346.337C345.052 28.7529 342.951 31.4447 340.257 33.4434C337.563 35.442 334.377 36.6728 331.04 37.0045C327.702 37.3363 324.336 36.7567 321.302 35.3274C318.267 33.8981 315.677 31.6726 313.807 28.8879C311.937 26.1031 310.857 22.8634 310.682 19.5137C310.508 16.1639 311.245 12.8294 312.815 9.86527C314.385 6.90114 316.73 4.41829 319.599 2.68106C322.469 0.943835 325.755 0.0172655 329.11 0V0Z" fill="white"/>
<path d="M7.34902 44.8845V46.7767C8.80786 46.7767 10.2069 47.3562 11.2385 48.3878C12.2701 49.4193 12.8496 50.8184 12.8496 52.2772C12.8496 53.7361 12.2701 55.1352 11.2385 56.1667C10.2069 57.1983 8.80786 57.7778 7.34902 57.7778V59.978H5.54484V57.7778C4.83561 57.7874 4.13188 57.6522 3.47669 57.3805C2.8215 57.1088 2.22862 56.7063 1.73434 56.1976C1.24005 55.6889 0.854741 55.0847 0.601981 54.422C0.34922 53.7592 0.234323 53.0519 0.264316 52.3433C0.231581 51.6268 0.34452 50.9112 0.596302 50.2397C0.848084 49.5681 1.23347 48.9547 1.72916 48.4363C2.22484 47.918 2.82052 47.5057 3.48015 47.2242C4.13979 46.9427 4.84967 46.798 5.56685 46.7987V44.8845H7.34902ZM5.58885 48.0968C4.59508 48.234 3.69111 48.7452 3.06143 49.5262C2.43175 50.3072 2.12383 51.299 2.20051 52.2992C2.13648 53.2931 2.45347 54.274 3.08701 55.0424C3.72054 55.8108 4.62303 56.309 5.61085 56.4357L5.58885 48.0968ZM7.32702 56.4357C8.32217 56.2886 9.22552 55.7724 9.85741 54.9896C10.4893 54.2069 10.8034 53.215 10.7374 52.2112C10.8068 51.2162 10.4918 50.2324 9.85723 49.4628C9.2227 48.6932 8.31705 48.1964 7.32702 48.0748V56.4357Z" fill="white"/>
<path d="M37.6244 55.0055C37.6161 55.8515 37.6676 56.697 37.7784 57.5358H36.0623L35.9083 56.1936C35.534 56.6959 35.0453 57.1016 34.4828 57.3771C33.9203 57.6526 33.3002 57.79 32.6739 57.7778C32.2581 57.8082 31.8405 57.7521 31.4475 57.6129C31.0545 57.4737 30.6946 57.2545 30.3907 56.9692C30.0867 56.6838 29.8452 56.3385 29.6815 55.9551C29.5178 55.5716 29.4354 55.1584 29.4396 54.7415C29.4396 52.1892 31.6398 50.8031 35.7982 50.8031V50.6051C35.8323 50.2808 35.7939 49.953 35.6858 49.6453C35.5777 49.3377 35.4025 49.058 35.173 48.8263C34.9434 48.5947 34.6653 48.417 34.3587 48.306C34.052 48.1951 33.7246 48.1537 33.4 48.1848C32.4188 48.1757 31.456 48.4508 30.6277 48.9769L30.1877 47.6788C31.2493 47.0614 32.458 46.7422 33.686 46.7547C36.9204 46.7547 37.7124 48.9549 37.7124 51.1551L37.6244 55.0055ZM35.7762 52.1452C33.576 52.1452 31.3758 52.4753 31.3758 54.5215C31.3566 54.7624 31.3892 55.0046 31.4713 55.2319C31.5535 55.4592 31.6833 55.6663 31.8521 55.8393C32.0209 56.0123 32.2248 56.1471 32.45 56.2348C32.6753 56.3225 32.9166 56.361 33.158 56.3476C33.7213 56.3669 34.2763 56.2068 34.7429 55.8905C35.2094 55.5742 35.5636 55.1179 35.7542 54.5875C35.7831 54.3831 35.7831 54.1757 35.7542 53.9714L35.7762 52.1452Z" fill="white"/>
<path d="M63.8069 43.3883C63.0876 43.6083 62.3518 43.7702 61.6066 43.8724C60.8721 43.918 60.1554 44.1179 59.5034 44.4591C58.8513 44.8003 58.2785 45.2751 57.8223 45.8526C57.1503 46.9043 56.7496 48.1063 56.6561 49.3509C56.9758 48.6394 57.4954 48.036 58.1516 47.6141C58.8078 47.1923 59.5724 46.9701 60.3525 46.9747C62.9488 46.9747 64.753 48.8229 64.753 52.1892C64.753 55.5556 62.9708 57.7998 59.8685 57.7998C56.1501 57.7998 54.94 54.2134 54.94 50.6931C54.8179 48.6156 55.3907 46.5565 56.5681 44.8405C57.0994 44.1235 57.7796 43.5301 58.562 43.1009C59.3444 42.6717 60.2104 42.417 61.1006 42.3542C62.0734 42.2412 63.0368 42.0573 63.9829 41.8042L63.8069 43.3883ZM60.1325 48.4048C59.6385 48.3926 59.1512 48.5205 58.7268 48.7735C58.3024 49.0266 57.9583 49.3946 57.7343 49.835C57.3777 50.513 57.1962 51.2693 57.2062 52.0352C57.2062 53.7734 58.0863 56.3256 60.1765 56.3256C62.2667 56.3256 63.0808 54.2574 63.0808 52.2772C63.0808 50.297 62.3987 48.4048 60.1325 48.4048Z" fill="white"/>
<path d="M82.6193 50.4291C82.6193 49.0649 82.6193 47.9868 82.6193 46.9747H84.3354V48.7789C84.7171 48.1294 85.2698 47.5971 85.9333 47.2402C86.5968 46.8832 87.3455 46.7153 88.0978 46.7547C88.744 46.8006 89.374 46.9775 89.9497 47.2746C90.5253 47.5718 91.0344 47.9829 91.4461 48.4831C91.8577 48.9832 92.1633 49.5619 92.3442 50.184C92.5251 50.806 92.5775 51.4583 92.4983 52.1012C92.5909 52.7968 92.5366 53.5041 92.3389 54.1774C92.1411 54.8507 91.8043 55.475 91.3501 56.01C90.896 56.545 90.3347 56.9788 89.7025 57.2833C89.0703 57.5878 88.3812 57.7562 87.6798 57.7778C87.0409 57.806 86.4056 57.6689 85.8352 57.3798C85.2647 57.0908 84.7785 56.6595 84.4234 56.1276V60H82.5312L82.6193 50.4291ZM84.5115 53.2453C84.4769 53.5082 84.4769 53.7745 84.5115 54.0374C84.6815 54.671 85.0565 55.2304 85.5779 55.6284C86.0993 56.0264 86.7378 56.2406 87.3937 56.2376C89.418 56.2376 90.6061 54.5875 90.6061 52.1452C90.6061 49.703 89.484 48.2288 87.4598 48.2288C86.7947 48.2613 86.1588 48.5115 85.6499 48.9409C85.1411 49.3703 84.7874 49.955 84.6435 50.6051C84.5667 50.8551 84.5224 51.1139 84.5115 51.3752V53.2453Z" fill="white"/>
<path d="M111.992 46.9747V51.3751C111.992 53.0253 111.992 54.1034 111.86 55.6216C112.52 54.3234 112.872 53.5974 113.598 52.3652L116.898 46.9087H119.098V57.4698H117.272V53.0693C117.272 51.3531 117.272 50.451 117.404 48.6689C116.7 50.055 116.26 50.8691 115.644 51.9692C114.632 53.5974 113.444 55.6436 112.344 57.4917H110.144V46.9307L111.992 46.9747Z" fill="white"/>
<path d="M139.406 46.9747V51.5512H139.868L143.829 46.9747H146.161L141.585 51.7272C143.279 51.9252 144.313 53.0693 145.149 54.9615C145.466 55.8432 145.841 56.7031 146.271 57.5358H144.269C143.882 56.8291 143.551 56.0935 143.279 55.3355C143.073 54.577 142.614 53.912 141.977 53.4515C141.341 52.991 140.565 52.7629 139.78 52.8053H139.406V57.4477H137.492V46.8867L139.406 46.9747Z" fill="white"/>
<path d="M170.782 55.0055C170.772 55.8516 170.823 56.6972 170.936 57.5358H169.198L169.044 56.1936C168.67 56.6958 168.181 57.1015 167.619 57.3771C167.056 57.6526 166.436 57.7899 165.81 57.7778C165.394 57.8082 164.976 57.7521 164.583 57.6129C164.19 57.4737 163.83 57.2545 163.526 56.9692C163.222 56.6838 162.981 56.3385 162.817 55.9551C162.654 55.5716 162.571 55.1584 162.575 54.7415C162.575 52.1892 164.776 50.8031 168.934 50.8031V50.6051C168.968 50.2808 168.93 49.953 168.822 49.6453C168.713 49.3377 168.538 49.058 168.309 48.8263C168.079 48.5947 167.801 48.417 167.494 48.306C167.188 48.1951 166.86 48.1537 166.536 48.1848C165.555 48.1757 164.592 48.4508 163.763 48.9769L163.323 47.6788C164.386 47.0624 165.594 46.7432 166.822 46.7547C170.056 46.7547 170.848 48.9549 170.848 51.1551L170.782 55.0055ZM168.934 52.1452C166.734 52.1452 164.534 52.4753 164.534 54.5215C164.514 54.7624 164.547 55.0046 164.629 55.2319C164.711 55.4592 164.841 55.6663 165.01 55.8393C165.179 56.0123 165.383 56.1471 165.608 56.2348C165.833 56.3225 166.074 56.361 166.316 56.3476C166.879 56.3669 167.434 56.2068 167.901 55.8905C168.367 55.5742 168.721 55.1179 168.912 54.5875C168.941 54.3831 168.941 54.1757 168.912 53.9714L168.934 52.1452Z" fill="white"/>
<path d="M209.022 46.9747H211.376L213.268 52.2992C213.554 53.0913 213.994 54.3675 214.236 55.2035C214.478 54.3895 215.072 52.7393 215.512 51.5732L217.184 46.9747H219.583L220.331 57.5358H218.504L218.262 52.4973C218.262 51.3312 218.13 50.011 218.086 48.7129C217.8 49.681 217.492 50.4951 216.898 52.1452L214.874 57.4698H213.422L211.552 52.2332C211.2 51.2431 210.738 49.725 210.474 48.7349C210.474 49.989 210.474 51.3752 210.32 52.5413L210.034 57.5358H208.273L209.022 46.9747Z" fill="white"/>
<path d="M239.076 52.6073C239.033 53.0968 239.098 53.5898 239.264 54.052C239.431 54.5143 239.696 54.9348 240.041 55.2843C240.387 55.6339 240.804 55.9041 241.264 56.0764C241.724 56.2486 242.217 56.3186 242.707 56.2816C243.711 56.3153 244.71 56.1275 245.633 55.7316L245.985 57.0957C244.866 57.5715 243.658 57.804 242.443 57.7778C241.737 57.8183 241.031 57.7065 240.372 57.45C239.713 57.1935 239.117 56.7982 238.625 56.2911C238.132 55.7839 237.754 55.1767 237.517 54.5108C237.28 53.8448 237.189 53.1356 237.25 52.4312C237.17 51.7273 237.238 51.0144 237.449 50.3381C237.66 49.6617 238.01 49.0367 238.475 48.5027C238.941 47.9688 239.513 47.5376 240.154 47.2367C240.795 46.9357 241.492 46.7716 242.201 46.7547C242.828 46.7498 243.449 46.879 244.022 47.1337C244.595 47.3884 245.107 47.7627 245.524 48.2315C245.941 48.7003 246.252 49.2528 246.438 49.8519C246.624 50.451 246.679 51.0829 246.601 51.7052C246.63 52.0052 246.63 52.3072 246.601 52.6073H239.076ZM244.709 51.2211C244.762 50.8364 244.733 50.4448 244.622 50.0725C244.512 49.7001 244.324 49.3556 244.07 49.0619C243.815 48.7682 243.502 48.5321 243.149 48.3695C242.796 48.2069 242.413 48.1214 242.025 48.1188C241.232 48.1687 240.488 48.5161 239.942 49.0915C239.395 49.6668 239.086 50.4275 239.076 51.2211H244.709Z" fill="white"/>
<path d="M272.212 43.3884C271.493 43.6085 270.757 43.7704 270.012 43.8724C269.277 43.918 268.561 44.1179 267.908 44.4591C267.256 44.8003 266.684 45.2751 266.227 45.8526C265.557 46.9051 265.156 48.1067 265.061 49.351C265.379 48.6377 265.898 48.0327 266.554 47.6105C267.211 47.1883 267.977 46.9673 268.758 46.9747C271.354 46.9747 273.158 48.8229 273.158 52.1892C273.158 55.5556 271.376 57.7998 268.274 57.7998C264.555 57.7998 263.345 54.2134 263.345 50.6931C263.22 48.6152 263.793 46.5551 264.973 44.8405C265.505 44.1235 266.185 43.5301 266.967 43.1009C267.75 42.6717 268.616 42.417 269.506 42.3543C270.39 42.2211 271.265 42.03 272.124 41.7822L272.212 43.3884ZM268.428 48.4049C267.934 48.3927 267.446 48.5205 267.022 48.7735C266.598 49.0266 266.253 49.3946 266.029 49.835C265.673 50.513 265.491 51.2693 265.501 52.0352C265.501 53.7734 266.381 56.3256 268.472 56.3256C270.562 56.3256 271.376 54.2574 271.376 52.2772C271.376 50.297 270.628 48.4049 268.428 48.4049Z" fill="white"/>
<path d="M298.967 46.9747V57.5358H297.03V48.4049H293.4V51.1111C293.4 54.0814 293.114 56.0616 291.75 56.9637C291.128 57.4572 290.34 57.6934 289.55 57.6238L289.352 56.1276C289.734 56.07 290.097 55.9189 290.408 55.6876C291.398 54.9615 291.508 53.4874 291.508 51.1331V46.9747H298.967Z" fill="white"/>
<path d="M319.406 44.0044C319.413 44.164 319.386 44.3232 319.327 44.4718C319.268 44.6203 319.179 44.7548 319.065 44.8668C318.951 44.9787 318.815 45.0655 318.665 45.1216C318.515 45.1777 318.356 45.2019 318.196 45.1925C318.04 45.1956 317.886 45.1669 317.741 45.108C317.597 45.0491 317.466 44.9613 317.357 44.8501C317.248 44.7388 317.162 44.6064 317.106 44.461C317.05 44.3156 317.024 44.1602 317.03 44.0044C317.024 43.8438 317.051 43.6837 317.11 43.5341C317.168 43.3845 317.257 43.2486 317.371 43.135C317.484 43.0213 317.62 42.9324 317.77 42.8738C317.92 42.8152 318.08 42.7881 318.24 42.7943C318.398 42.791 318.555 42.8204 318.701 42.8806C318.847 42.9408 318.979 43.0306 319.088 43.1443C319.198 43.2579 319.282 43.393 319.337 43.541C319.392 43.6891 319.416 43.8468 319.406 44.0044ZM317.206 57.5358V46.9747H319.12V57.5358H317.206Z" fill="white"/>
<path d="M337.492 47.1067C338.607 46.9438 339.732 46.8629 340.859 46.8647C342.641 46.8647 345.567 47.1727 345.567 49.505C345.541 50.0997 345.306 50.6661 344.904 51.1048C344.501 51.5434 343.957 51.8261 343.367 51.9032C344.907 52.1232 346.051 52.9813 346.051 54.4995C346.051 57.2717 342.553 57.6238 340.484 57.6238C339.296 57.6238 338.064 57.6238 337.492 57.4917V47.1067ZM339.318 56.3036C339.868 56.3036 340.264 56.3036 340.859 56.3036C342.157 56.3036 344.093 56.0176 344.093 54.4774C344.093 52.9373 342.531 52.6293 340.727 52.6293H339.318V56.3036ZM339.318 51.4411H340.748C342.157 51.4411 343.631 51.0231 343.631 49.747C343.631 48.4708 342.707 48.2068 340.793 48.2068C340.302 48.1794 339.809 48.1794 339.318 48.2068V51.4411Z" fill="white"/>
</g>
<defs>
<clipPath id="clip0">
<rect width="346.315" height="60" fill="white"/>
</clipPath>
</defs>
</svg>
